<?xml version="1.0" encoding="UTF-8"?>
<svg version="1.1" xmlns="http://www.w3.org/2000/svg" width="1254" height="1254">
<path d="M0 0 C413.82 0 827.64 0 1254 0 C1254 413.82 1254 827.64 1254 1254 C840.18 1254 426.36 1254 0 1254 C0 840.18 0 426.36 0 0 Z " fill="#FDFDFD" transform="translate(0,0)"/>
<path d="M0 0 C1.23444855 0.00140488 1.23444855 0.00140488 2.49383545 0.00283813 C49.50641402 0.11862142 96.81441832 9.79645565 138.47607422 32.21044922 C140.41920617 33.24427188 142.38042138 34.23553174 144.34765625 35.22265625 C160.27383995 43.29900261 175.31589287 53.1016917 189.3125 64.1875 C190.20710937 64.89003906 191.10171875 65.59257812 192.0234375 66.31640625 C209.17937074 80.05590006 225.93265783 95.71865385 239.3125 113.1875 C240.45138672 114.60095703 240.45138672 114.60095703 241.61328125 116.04296875 C258.04408819 136.71905595 272.07651367 160.05615036 281.1875 184.875 C283.00230062 189.79091284 284.90444916 194.6322943 287 199.4375 C289.08219726 204.33600253 290.47172823 209.20958401 291.63671875 214.3984375 C292.27416995 217.21578654 292.27416995 217.21578654 293.2734375 219.99609375 C300.8623073 243.30476528 301.58765911 268.71748438 301.6875 293 C301.69535522 293.94657471 301.70321045 294.89314941 301.71130371 295.8684082 C301.78426474 307.15337418 301.05825057 317.2110352 298.3125 328.1875 C298.08460103 329.60244872 297.88089625 331.02178014 297.71484375 332.4453125 C296.36111671 343.70741137 293.52263116 354.46805174 290.5 365.375 C290.29148407 366.13532532 290.08296814 366.89565063 289.86813354 367.67901611 C285.8692617 382.18756047 281.11369271 396.10843021 274.19140625 409.50390625 C271.9721745 413.80299771 269.92474003 418.18069037 267.875 422.5625 C267.52066895 423.31909912 267.16633789 424.07569824 266.80126953 424.85522461 C265.97026 426.63198643 265.14116247 428.40964233 264.3125 430.1875 C264.6425 430.1875 264.9725 430.1875 265.3125 430.1875 C301.83281476 391.02261073 324.28011606 338.76310395 332.3125 286.1875 C367.60463679 289.39587607 399.31199887 311.40924559 424.3125 335.1875 C425.26189453 336.05761719 425.26189453 336.05761719 426.23046875 336.9453125 C435.16579731 345.39248772 442.50869122 356.00661825 449.3125 366.1875 C449.87324219 367.01121094 450.43398437 367.83492187 451.01171875 368.68359375 C458.11995052 379.43379596 463.84348741 391.10688148 468.3125 403.1875 C468.62574219 403.950625 468.93898438 404.71375 469.26171875 405.5 C477.48347956 426.2981301 480.78399341 449.9252907 480.3125 472.1875 C481.17617187 472.43628906 482.03984375 472.68507813 482.9296875 472.94140625 C493.87191887 476.97208963 503.12434006 486.11450405 511.3125 494.1875 C512.11558594 494.97769531 512.91867187 495.76789063 513.74609375 496.58203125 C525.11110778 508.4591603 534.24773328 524.78848737 536.3125 541.1875 C536.95153117 542.86495682 537.61591637 544.53311387 538.3125 546.1875 C539.67617357 551.87017686 539.49659666 557.49959639 539.5 563.3125 C539.51224609 564.39015625 539.52449219 565.4678125 539.53710938 566.578125 C539.54993882 573.67708239 538.84613652 580.26105438 537.3125 587.1875 C537.15676514 587.93161133 537.00103027 588.67572266 536.84057617 589.44238281 C533.33657811 605.42811074 526.06000932 619.80508278 515.3125 632.1875 C514.84714844 632.78304687 514.38179687 633.37859375 513.90234375 633.9921875 C500.56534944 650.70986839 478.21481654 661.15479591 457.3125 664.1875 C453.11719232 664.45457798 448.93665449 664.45645131 444.73390579 664.43918228 C442.87624566 664.4435426 442.87624566 664.4435426 440.98105705 664.44799101 C437.55408577 664.45401742 434.1273351 664.45113448 430.70037929 664.44443511 C426.96773535 664.43934911 423.23510842 664.44588661 419.50246692 664.45092177 C412.96343118 664.45813908 406.42442848 664.45792972 399.88539124 664.45282745 C390.16051978 664.44526008 380.43567617 664.44913148 370.7108049 664.45524407 C353.3361566 664.46577817 335.96152301 664.46486115 318.58687331 664.45908624 C303.36946538 664.45405339 288.15206283 664.4527425 272.93465424 664.45513153 C271.92488953 664.4552843 270.91512483 664.45543707 269.87476119 664.45559447 C265.77548608 664.45621718 261.67621097 664.45685398 257.57693586 664.457514 C219.10680053 664.4636341 180.63667456 664.45808342 142.16654068 664.4473202 C108.0345247 664.43784321 73.90252366 664.4386659 39.77050781 664.44824219 C1.40052777 664.45897157 -36.96944399 664.46318566 -75.33942533 664.45701766 C-79.43739652 664.45637627 -83.53536773 664.45575059 -87.63333893 664.45513153 C-88.64231739 664.45497338 -89.65129584 664.45481522 -90.69084941 664.45465227 C-105.87984701 664.45238419 -121.06883861 664.45502536 -136.25783539 664.46009064 C-153.55652256 664.4658308 -170.85519275 664.46433436 -188.15387782 664.45352915 C-197.81684173 664.44769126 -207.4797688 664.4472224 -217.14273168 664.4548215 C-223.62173165 664.45935108 -230.10070247 664.4564355 -236.57969816 664.44781196 C-240.25544394 664.44311622 -243.93111733 664.44129492 -247.60686049 664.44862393 C-262.04625577 664.47514773 -276.4239478 664.23513948 -290.83311844 663.31225204 C-292.03462761 663.23685684 -293.23613679 663.16146164 -294.47405533 663.08378173 C-306.45129387 662.23098711 -318.0317619 660.00753081 -329.6875 657.1875 C-330.64092285 656.96046387 -331.5943457 656.73342773 -332.57666016 656.49951172 C-346.12763576 653.21337111 -358.89582195 648.70537969 -371.6875 643.1875 C-372.51491699 642.83816406 -373.34233398 642.48882813 -374.19482422 642.12890625 C-402.1246662 630.30972879 -428.14741171 613.77356025 -450.4765625 593.21484375 C-452.42732911 591.4260666 -454.41730395 589.70906881 -456.4375 588 C-465.53595094 580.04577615 -474.06752016 571.37175355 -481.55078125 561.8828125 C-483.83599213 559.00018817 -486.2265615 556.22638197 -488.625 553.4375 C-494.22438806 546.71996789 -499.02280572 539.57655623 -503.6875 532.1875 C-504.07824707 531.5697168 -504.46899414 530.95193359 -504.87158203 530.31542969 C-510.33851877 521.60228418 -515.14823028 512.65015416 -519.60546875 503.3828125 C-520.41231291 501.74582183 -521.24775189 500.12286622 -522.09765625 498.5078125 C-525.97505192 491.05809544 -528.8143124 483.57278188 -531.3125 475.5625 C-531.89269897 473.73078247 -531.89269897 473.73078247 -532.48461914 471.86206055 C-535.43323649 462.38762001 -537.77371996 452.91505556 -539.6875 443.1875 C-540.00999384 441.79517226 -540.33431346 440.40326655 -540.66015625 439.01171875 C-541.00979003 437.4051929 -541.35174571 435.79698381 -541.6875 434.1875 C-541.8719165 433.31706055 -542.05633301 432.44662109 -542.24633789 431.54980469 C-544.29621254 420.37001151 -544.08466134 409.07872785 -544.0625 397.75 C-544.06162384 396.66202118 -544.06074768 395.57404236 -544.05984497 394.45309448 C-543.88544584 328.75410395 -520.81002714 271.78271577 -475.6875 224.1875 C-474.9759375 223.43339844 -474.264375 222.67929687 -473.53125 221.90234375 C-468.8003144 217.02599005 -463.68996062 212.70730683 -458.35546875 208.50488281 C-457.184465 207.58000924 -456.0181927 206.64912861 -454.85546875 205.71386719 C-443.72390251 196.77403719 -432.10472076 189.2182667 -419.6875 182.1875 C-418.97126465 181.77516113 -418.2550293 181.36282227 -417.51708984 180.93798828 C-380.04067249 159.47864658 -337.42436572 151.2715087 -294.6875 152.1875 C-295.35609042 155.01601094 -296.17839904 157.31602265 -297.5625 159.875 C-299.41562866 163.47460244 -300.69732063 167.0670245 -301.91015625 170.921875 C-302.67941888 173.16394699 -303.60694925 175.23590504 -304.625 177.375 C-315.65485645 201.99296858 -318.67478893 234.09734777 -311.6875 260.1875 C-311.02491529 261.85579365 -310.35915517 263.5228374 -309.6875 265.1875 C-309.5625 268 -309.5625 268 -309.6875 270.1875 C-309.0275 270.1875 -308.3675 270.1875 -307.6875 270.1875 C-307.58050781 269.30320312 -307.47351563 268.41890625 -307.36328125 267.5078125 C-306.67238517 264.1132364 -305.65361474 262.00734567 -303.875 259.0625 C-298.58140616 249.63762888 -296.30729136 239.8416177 -294.18920898 229.3425293 C-284.90438786 183.68343099 -259.57870715 138.38442026 -227.8359375 104.484375 C-225.95255286 102.47086561 -224.15650599 100.4155461 -222.375 98.3125 C-214.7665118 89.59406764 -206.47517464 81.51473019 -197.39453125 74.34375 C-195.58819834 72.90493937 -193.81393907 71.42492962 -192.07421875 69.90625 C-146.71842276 30.38832874 -86.7736847 8.20940301 -27.6875 1.1875 C-26.94411377 1.08961182 -26.20072754 0.99172363 -25.43481445 0.89086914 C-16.98912901 -0.11664532 -8.49241297 -0.0124466 0 0 Z " fill="#1693F3" transform="translate(635.6875,225.8125)"/>
<path d="M0 0 C29.38872553 -0.49373667 58.81783418 3.42000418 80.953125 24.8125 C86.16408836 30.38146847 89.79387177 36.09449303 93 43 C93.55399629 32.2073316 91.56065669 24.20384555 86 15 C86 14.34 86 13.68 86 13 C100.96555403 18.39081785 113.19422485 32.02004592 120 46 C121.14004806 48.65193976 122.10201868 51.2532336 123 54 C123.66 53.34 124.32 52.68 125 52 C127.80791432 57.61582864 126.48239999 66.25676387 124.8125 72.125 C122.94492108 77.58407685 120.49856181 82.80536161 118 88 C118.680625 88.23847656 119.36125 88.47695313 120.0625 88.72265625 C123.62901021 90.27351907 126.78109363 92.27989971 130 94.4375 C130.98033203 95.09250488 130.98033203 95.09250488 131.98046875 95.76074219 C138.74245995 100.36792091 144.86009109 105.60844563 151 111 C152.37372842 112.12655237 153.7484616 113.25188289 155.125 114.375 C157.91896466 116.92601121 159.41836994 118.60189179 161 122 C160.88958914 124.31586776 160.71679184 126.62915962 160.5 128.9375 C160.46690612 132.94630456 160.95964189 135.82788951 163.67333984 138.88525391 C168.29741789 142.85955365 173.41875662 146.12342251 178.54980469 149.39941406 C181.95714955 151.62525632 185.13929555 154.0809058 188.3125 156.625 C188.86526611 157.06199219 189.41803223 157.49898437 189.98754883 157.94921875 C195.96475707 162.70363692 201.7425521 167.68998482 207.49902344 172.70751953 C208.79656688 173.82482516 210.11883452 174.91329782 211.4453125 175.99609375 C216.37733638 180.0561058 219.72223224 184.52463794 223 190 C217.97143045 193.01714173 214.70388605 193.37402531 209 193 C208.01 192.67 207.02 192.34 206 192 C204.45309997 191.97549049 202.90488967 192.00823346 201.359375 192.078125 C200.00005859 192.11679687 200.00005859 192.11679687 198.61328125 192.15625 C196.7194557 192.21825793 194.82607659 192.2961321 192.93359375 192.390625 C186.24198832 192.54206162 183.0479921 191.434424 178 187 C179.65678229 193.62712915 182.84351642 199.07454502 188.734375 202.66796875 C190.63889491 203.64793997 192.56425197 204.58888991 194.51171875 205.48046875 C197.50343507 207.30743523 198.55351356 208.8281294 200 212 C201.27920738 218.96073205 199.59741806 225.02804857 196 231 C189.69171874 239.1636581 177.80653741 243.07427654 168 245 C161.52706216 245.54217523 154.19222049 246.0640735 148 244 C136.05916826 242.83292362 136.05916826 242.83292362 125 246.375 C120.70177615 249.76110962 120.70177615 249.76110962 119.625 254.875 C119.5025955 257.80158038 119.85909179 258.80735737 121.6171875 261.2109375 C126.05749684 264.5448091 131.42503181 263.97996698 136.73291016 263.41699219 C142.70794333 262.31798759 148.22930267 259.57606509 153.7734375 257.1796875 C159.02069446 254.9291665 164.34859824 253.14582082 169.8125 251.5 C170.63000732 251.24524902 171.44751465 250.99049805 172.28979492 250.72802734 C176.96225314 249.3454254 181.07700805 248.55526296 186 249 C186.99 249.66 187.98 250.32 189 251 C189 251.66 189 252.32 189 253 C189.66 253 190.32 253 191 253 C191.69858638 269.20332296 189.72495602 282.12702345 178.625 294.6875 C170.47662081 301.86583405 162.67295504 306.71293821 152 309 C152.33 308.175 152.66 307.35 153 306.5 C154.33199967 301.83800114 155.20004735 297.74210819 153.21875 293.21484375 C148.69302049 286.84691024 140.74701611 284.15685506 133.91210938 280.92138672 C123.36525522 275.83918197 113.95096846 269.07633473 109.8125 257.75 C108.22244508 250.41128501 108.31535021 244.73401512 112 238 C118.39087849 228.51051375 128.14452625 225.12632991 139 223 C138.44650879 222.88930176 137.89301758 222.77860352 137.32275391 222.66455078 C127.88183594 220.77636719 118.44091797 218.88818359 109 217 C116.80429508 210.1712418 124.96521244 208.01919506 135 206 C133.50279178 205.51218011 132.00202636 205.03527637 130.5 204.5625 C129.6646875 204.29566406 128.829375 204.02882813 127.96875 203.75390625 C121.13395539 202.01822815 114.52053431 201.90311938 107.5234375 202.078125 C105.69923679 202.10540099 103.87501664 202.13140162 102.05078125 202.15625 C99.22031819 202.19923201 96.39090124 202.24959164 93.56103516 202.32226562 C78.808036 202.6835425 66.6092527 201.55824342 54.125 192.8125 C53.13757813 192.13832031 52.15015625 191.46414063 51.1328125 190.76953125 C50.42898438 190.18558594 49.72515625 189.60164062 49 189 C49 188.34 49 187.68 49 187 C56.92 187.33 64.84 187.66 73 188 C73 187.34 73 186.68 73 186 C72.14792969 185.89558594 71.29585937 185.79117188 70.41796875 185.68359375 C58.55784407 183.31156881 47.11972969 175.25481347 40.2109375 165.46484375 C38.25463378 162.10415441 37 159.93063043 37 156 C36.34 156 35.68 156 35 156 C34.26009746 143.07225834 36.43768426 134.18657968 44.89453125 124.23828125 C47.74711326 121.205759 50.73656805 118.58355029 54 116 C49.38 116 44.76 116 40 116 C42.84428126 110.54092717 46.07024022 106.38391562 50.4375 102.0625 C51.04787109 101.45567383 51.65824219 100.84884766 52.28710938 100.22363281 C59.48866982 93.27794656 67.34232093 87.93179543 77 85 C51.60504144 84.49434817 32.6613101 93.38532779 14.20166016 110.61132812 C11.39605361 113.33736753 8.62944163 116.09731413 5.875 118.875 C4.95074219 119.79152344 4.02648437 120.70804688 3.07421875 121.65234375 C-3.04687316 127.79070249 -8.62828489 134.19994379 -14 141 C-14.47228027 141.58201172 -14.94456055 142.16402344 -15.43115234 142.76367188 C-23.80594712 153.09153728 -34 168.14853994 -34 182 C-33.5875 181.5153125 -33.175 181.030625 -32.75 180.53125 C-30.85617492 178.33306017 -28.93316682 176.16365979 -27 174 C-26.4328125 173.35289062 -25.865625 172.70578125 -25.28125 172.0390625 C-14.79951538 160.77579504 -0.04823553 152.12321869 15 149 C13.55610917 152.22154537 11.74161778 154.58746389 9.4375 157.25 C-7.08501977 177.67075492 -15.01243269 202.88224279 -13 229 C-11.30588778 238.63223804 -7.33565898 247.29977765 -3 256 C-3.02094727 255.26587891 -3.04189453 254.53175781 -3.06347656 253.77539062 C-3.64887503 230.10750814 -2.11228571 208.1959133 15 190 C15.66 189.67 16.32 189.34 17 189 C16.83886719 190.14082031 16.67773438 191.28164063 16.51171875 192.45703125 C13.33338449 218.04684103 19.21528175 242.12834085 34.8125 262.625 C40.3024868 269.6417441 46.37357143 276.11343881 52.49365234 282.57763672 C67.72945268 298.6955355 80.11419092 315.59978236 89 336 C89.83712449 321.53634902 87.29500843 308.05631378 81 295 C81.33 294.34 81.66 293.68 82 293 C82.79921875 293.61746094 83.5984375 294.23492188 84.421875 294.87109375 C90.00531416 299.17863651 95.6014119 303.46561714 101.25 307.6875 C102.23484375 308.42742187 103.2196875 309.16734375 104.234375 309.9296875 C105.92472727 311.1950642 107.62121511 312.45236134 109.328125 313.6953125 C120.3193364 321.87941595 128.93938217 331.28768102 136 343 C131.83268859 343 129.17924193 340.89075964 125.75 338.75 C124.45357199 337.952398 123.15669869 337.15551932 121.859375 336.359375 C121.22451172 335.96814453 120.58964844 335.57691406 119.93554688 335.17382812 C116.99091778 333.38803389 113.99853588 331.69347363 111 330 C111.39832031 331.12535156 111.79664063 332.25070312 112.20703125 333.41015625 C120.06084372 355.95460661 124.3297104 380.62266609 117 404 C116.70996094 404.99241699 116.70996094 404.99241699 116.4140625 406.00488281 C110.82183118 425.08578319 102.47513951 445.88612103 88 460 C87.99589111 459.31188232 87.99178223 458.62376465 87.98754883 457.91479492 C87.78736761 438.66697019 86.08931284 421.24638846 77 404 C76.47535156 402.95585938 75.95070313 401.91171875 75.41015625 400.8359375 C68.9699256 388.36437974 60.68071184 378.05436427 51 368 C50.47712402 367.45520996 49.95424805 366.91041992 49.41552734 366.34912109 C44.15937954 360.90316356 38.91642755 355.59713368 32.9375 350.9375 C27.10884099 346.31774804 21.89192959 341.11924564 16.625 335.875 C15.75609131 335.01511475 14.88718262 334.15522949 13.99194336 333.26928711 C9.50087458 328.75729517 5.50339727 324.31997363 2 319 C3.319552 328.236864 7.6438055 335.87929478 12 344 C12.54785156 345.03511719 13.09570312 346.07023437 13.66015625 347.13671875 C19.28378624 357.26477963 26.52134314 366.28351414 33.64453125 375.3828125 C49.62260232 395.81843232 63.17068184 416.8384507 63.1875 443.5625 C63.19974609 444.59052734 63.21199219 445.61855469 63.22460938 446.67773438 C63.22654297 447.67224609 63.22847656 448.66675781 63.23046875 449.69140625 C63.23457764 450.59060791 63.23868652 451.48980957 63.24291992 452.41625977 C62.97598437 455.25543459 62.17509407 457.41490947 61 460 C57.89829029 457.33730151 56.22220629 453.97808884 54.3125 450.4375 C50.7756719 444.08250501 46.78519005 438.49613257 42 433 C40.96939453 431.78763672 40.96939453 431.78763672 39.91796875 430.55078125 C30.39863702 419.6249897 19.55411632 410.64835258 8 402 C-14.04880971 385.41667914 -32.37745299 368.27497895 -46 344 C-46.41894531 343.27554687 -46.83789062 342.55109375 -47.26953125 341.8046875 C-52.39189457 332.37627374 -55.03041891 321.61396154 -57.25 311.1875 C-57.49459961 310.04220825 -57.49459961 310.04220825 -57.74414062 308.8737793 C-59.88868752 298.27538291 -60.23612494 287.66142818 -60.5625 276.875 C-60.60581131 275.52342758 -60.64942902 274.17186494 -60.69335938 272.8203125 C-60.79857434 269.54695806 -60.90071479 266.27353875 -61 263 C-61.48120447 264.41467306 -61.95987276 265.83020893 -62.4375 267.24609375 C-62.70433594 268.0342749 -62.97117187 268.82245605 -63.24609375 269.63452148 C-64.16463831 272.51657401 -64.86511991 275.3915287 -65.4609375 278.35546875 C-65.8584012 280.30534502 -66.30921819 282.24452666 -66.7890625 284.17578125 C-71.43671408 304.74272537 -69.42259696 325.70418098 -65.52148438 346.21582031 C-65.03487113 348.81382475 -64.59264004 351.41406626 -64.171875 354.0234375 C-62.9946453 361.2619027 -61.53260105 368.09290624 -59 375 C-58.62770641 376.65839874 -58.2706431 378.32201275 -58 380 C-62.70832922 376.15363721 -66.89637283 372.14844894 -70.8125 367.5 C-71.32530518 366.89325439 -71.83811035 366.28650879 -72.36645508 365.66137695 C-85.03526578 350.48113663 -94.6296148 334.45526081 -100.80859375 315.609375 C-101.90358499 312.13699799 -101.90358499 312.13699799 -103.08984375 309.390625 C-110.26125299 290.55413379 -107.88536653 263.85936645 -102 245 C-101.73735352 244.13375 -101.47470703 243.2675 -101.20410156 242.375 C-98.21188261 232.61344264 -95.1817603 222.85913858 -90 214 C-115.10010641 243.69960235 -128.08777955 275.58505487 -125 315 C-123.71518163 326.8440992 -119.92542746 337.79028002 -115.5859375 348.828125 C-114.14744703 352.5048321 -113.01892673 356.18659104 -112 360 C-117.68098347 356.28996998 -121.6925478 352.20700045 -126 347 C-127.17949219 345.65035156 -127.17949219 345.65035156 -128.3828125 344.2734375 C-148.24076382 321.25764682 -162.24971165 288.91414108 -160 258 C-158.71812799 246.07859034 -156.04983078 234.83722427 -151.23828125 223.8515625 C-150.14763848 221.33998767 -149.19110514 218.81977569 -148.25 216.25 C-139.75042225 195.03505393 -124.66654094 176.59461625 -108.75 160.5 C-108.1837793 159.92443359 -107.61755859 159.34886719 -107.03417969 158.75585938 C-103.28287717 155.03299238 -99.37073999 151.97299066 -95 149 C-110.62348646 154.90680017 -124.63141102 164.57867252 -136.7734375 175.9296875 C-138.79346607 177.80795968 -140.87292679 179.55830019 -143 181.3125 C-159.0814952 195.49637877 -171.54722607 216.68912586 -178 237 C-178.33 237 -178.66 237 -179 237 C-179.35688345 222.62583267 -178.9674185 209.08416543 -176 195 C-175.83371094 194.07960938 -175.66742188 193.15921875 -175.49609375 192.2109375 C-174.61271508 187.57916823 -173.06670803 183.55589656 -171.0546875 179.296875 C-170.00006656 177.00014494 -169.12524496 174.68263236 -168.25 172.3125 C-158.67894813 148.23532264 -139.82177304 128.370065 -119.3125 113.125 C-118.70688232 112.67237793 -118.10126465 112.21975586 -117.47729492 111.75341797 C-113.18813525 108.63899629 -108.78988687 106.27083942 -104 104 C-121.75107197 105.97084826 -143.41946541 115.06341254 -156 128 C-156.66 128 -157.32 128 -158 128 C-148.41403849 106.71424958 -123.61796698 90.00214014 -103 81 C-102.35450195 80.71785645 -101.70900391 80.43571289 -101.04394531 80.14501953 C-81.65792467 71.87501525 -61.05724125 68.75323975 -40 71 C-37.63452148 72.02099609 -37.63452148 72.02099609 -36 73 C-36.88751953 73.69222656 -36.88751953 73.69222656 -37.79296875 74.3984375 C-44.57320869 79.99517716 -49.32776802 86.19619047 -51 95 C-52.390907 109.88270493 -48.21071125 123.24398285 -39 135 C-35.00181764 139.451445 -30.85456175 143.49331883 -26 147 C-26.23989798 139.3232646 -27.00136092 132.37084191 -29.0625 125 C-31.52218687 115.97787293 -33.15559085 105.58331218 -29.18359375 96.74609375 C-26.05631848 92.13258865 -21.23350727 87.98351788 -16 86 C-4.16909121 84.66674219 5.90254751 87.15434815 17 91 C17.433125 90.1028125 17.433125 90.1028125 17.875 89.1875 C19 87 19 87 21 84 C20.71679728 80.17375047 19.78843913 78.21261751 16.9375 75.6875 C10.71258118 70.55053997 3.28887885 67.3386658 -4 64 C-5.40378906 63.34451172 -5.40378906 63.34451172 -6.8359375 62.67578125 C-12.04916306 60.40659407 -17.12434046 59.27530488 -22.75 58.4921875 C-26 58 -26 58 -27.96435547 57.51196289 C-35.83353372 55.62184194 -43.63751916 55.66253203 -51.68359375 55.68432617 C-54.09942636 55.68746675 -56.51400715 55.66403012 -58.9296875 55.63867188 C-72.22278852 55.58356346 -84.79021437 57.14223578 -97.375 61.6875 C-103.85545723 64 -103.85545723 64 -106 64 C-97.84624472 45.72033617 -72.70918736 30.78878282 -55 23 C-50.71244685 21.42953308 -46.40874495 20.17363831 -42 19 C-40.49179687 18.47599609 -40.49179687 18.47599609 -38.953125 17.94140625 C-27.81125847 14.38956785 -14.58112293 15.7968224 -3 16 C-1.28876953 16.02513672 -1.28876953 16.02513672 0.45703125 16.05078125 C16.52592512 16.82015373 30.27522869 24.2764434 44 32 C31.51520108 17.55241897 18.06511186 8.34720146 0 2 C0 1.34 0 0.68 0 0 Z " fill="#FBFCFD" transform="translate(480,410)"/>
<path d="M0 0 C5.61 0 11.22 0 17 0 C17.33 7.26 17.66 14.52 18 22 C19.98 20.68 21.96 19.36 24 18 C31.05486727 16.63750786 37.47944548 17.01455048 43.5625 21 C48.33825692 24.57561004 52.26390793 29.44703153 53.49194336 35.37451172 C53.7057297 37.91728499 53.74474985 40.38662041 53.6875 42.9375 C53.67678467 43.82050781 53.66606934 44.70351563 53.6550293 45.61328125 C53.3951056 52.4332743 52.07851206 57.18687336 47 62 C46.175 62.804375 45.35 63.60875 44.5 64.4375 C39.66290898 67.46068189 35.0899893 68.29247938 29.4375 68.3125 C28.34308594 68.32925781 27.24867187 68.34601563 26.12109375 68.36328125 C22.68844176 67.96373602 20.79807593 66.97480592 18 65 C17.67 65.99 17.34 66.98 17 68 C14.35409986 68.02684679 11.70846904 68.04676357 9.0625 68.0625 C8.30775391 68.07087891 7.55300781 68.07925781 6.77539062 68.08789062 C4.85005687 68.09652441 2.92464419 68.05224333 1 68 C0 67 0 67 -0.12025452 64.33616638 C-0.11803391 63.14813919 -0.11581329 61.960112 -0.11352539 60.73608398 C-0.11367142 60.08244873 -0.11381744 59.42881348 -0.1139679 58.75537109 C-0.11326883 56.58557872 -0.10547678 54.41587121 -0.09765625 52.24609375 C-0.09579205 50.74536689 -0.09436816 49.24463943 -0.09336853 47.74391174 C-0.08954352 43.78681774 -0.0797134 39.82976022 -0.06866455 35.87268066 C-0.05845006 31.83765151 -0.05387083 27.80261647 -0.04882812 23.76757812 C-0.0380911 15.84503344 -0.02049445 7.92252546 0 0 Z " fill="#F5FAFD" transform="translate(1056,777)"/>
<path d="M0 0 C5.28 0 10.56 0 16 0 C17.3406751 3.91429249 18.67279005 7.8311436 20 11.75 C20.3815625 12.86117187 20.763125 13.97234375 21.15625 15.1171875 C21.5171875 16.18710937 21.878125 17.25703125 22.25 18.359375 C22.75273438 19.83615723 22.75273438 19.83615723 23.265625 21.34277344 C24 24 24 24 24 28 C24.66 28 25.32 28 26 28 C26.13140381 27.28884033 26.26280762 26.57768066 26.39819336 25.8449707 C27.00115455 22.99454201 27.77334321 20.26493755 28.62890625 17.48046875 C28.94150391 16.45888672 29.25410156 15.43730469 29.57617188 14.38476562 C29.90166016 13.32966797 30.22714844 12.27457031 30.5625 11.1875 C30.89185547 10.11306641 31.22121094 9.03863281 31.56054688 7.93164062 C32.37154004 5.2870977 33.18548268 2.64345961 34 0 C39.61 0 45.22 0 51 0 C51.40992188 1.30195312 51.81984375 2.60390625 52.2421875 3.9453125 C52.78643259 5.67188312 53.33070485 7.39844516 53.875 9.125 C54.14441406 9.9809375 54.41382813 10.836875 54.69140625 11.71875 C56.09162868 16.15847965 57.51044603 20.58918486 59 25 C61.16525313 24.19537309 61.16525313 24.19537309 61.74609375 22.11401367 C61.97425781 21.30681885 62.20242188 20.49962402 62.4375 19.66796875 C62.69273437 18.78689453 62.94796875 17.90582031 63.2109375 16.99804688 C63.47132813 16.07056641 63.73171875 15.14308594 64 14.1875 C64.51743291 12.36751939 65.03815311 10.54846946 65.5625 8.73046875 C65.79066406 7.91989014 66.01882813 7.10931152 66.25390625 6.27416992 C67 4 67 4 69 0 C74.28 0 79.56 0 85 0 C82.35600687 8.02315156 79.55742826 15.93853218 76.53515625 23.82421875 C73.35664953 32.14148851 70.52439511 40.45589347 68 49 C62.06 49 56.12 49 50 49 C49.51080078 47.02966797 49.51080078 47.02966797 49.01171875 45.01953125 C48.57073563 43.28374661 48.12930585 41.54807541 47.6875 39.8125 C47.47416016 38.94818359 47.26082031 38.08386719 47.04101562 37.19335938 C45.88143096 32.67617134 44.72952604 28.86616151 42 25 C37.90065715 31.14901427 36.47994198 38.72280525 34.6484375 45.8125 C34 48 34 48 33 49 C30.13732433 49.07325168 27.299281 49.09238205 24.4375 49.0625 C23.63119141 49.05798828 22.82488281 49.05347656 21.99414062 49.04882812 C19.99606244 49.03700518 17.99802217 49.01906914 16 49 C13.92357596 43.54084076 11.9666034 38.05933953 10.1171875 32.51953125 C9.85745148 31.74365158 9.59771545 30.96777191 9.33010864 30.16838074 C8.78651013 28.54260961 8.24370304 26.91657365 7.70166016 25.2902832 C6.87338226 22.80765109 6.04030438 20.32666242 5.20703125 17.84570312 C4.67678975 16.25791051 4.1468319 14.67002314 3.6171875 13.08203125 C3.3692746 12.34547806 3.12136169 11.60892487 2.86593628 10.85005188 C1.66176635 7.2214686 0.75298102 3.76490511 0 0 Z " fill="#F6FAFD" transform="translate(679,796)"/>
<path d="M0 0 C1.69500587 1.41642074 3.32087165 2.86536554 4.91015625 4.3984375 C3.50170907 7.61368055 1.80670839 9.72027618 -0.71484375 12.1484375 C-1.34648438 12.76203125 -1.978125 13.375625 -2.62890625 14.0078125 C-3.11101563 14.46671875 -3.593125 14.925625 -4.08984375 15.3984375 C-6.63044333 14.20095745 -8.46000898 13.09147121 -10.65234375 11.2734375 C-15.5003021 8.62909658 -19.67793296 8.73707135 -25.08984375 9.3984375 C-29.84836849 11.0422915 -32.28553858 13.24391133 -35.08984375 17.3984375 C-36.87989586 22.76859384 -37.09443446 29.16078516 -35.40625 34.6015625 C-33.17316579 38.86388092 -30.42086064 41.42979346 -26.08984375 43.3984375 C-19.80289097 44.52110764 -15.25352147 43.96026242 -9.90234375 40.3984375 C-8.61273918 39.42276469 -7.33439953 38.43095785 -6.08984375 37.3984375 C-2.8746007 38.80688468 -0.76800507 40.50188536 1.66015625 43.0234375 C2.27375 43.65507813 2.88734375 44.28671875 3.51953125 44.9375 C4.20789063 45.66066406 4.20789063 45.66066406 4.91015625 46.3984375 C3.48246896 49.88833977 1.85552115 51.46361927 -1.27734375 53.5234375 C-2.01339844 54.02101563 -2.74945312 54.51859375 -3.5078125 55.03125 C-12.60699148 59.84927215 -25.42813775 60.21158713 -35.3046875 57.5234375 C-43.45138251 53.70742011 -49.22684839 47.4215817 -53.08984375 39.3984375 C-55.49628818 30.30563068 -55.60440876 18.12253927 -51.4921875 9.546875 C-47.00135737 2.66677312 -41.15802277 -2.31330581 -33.33984375 -4.7890625 C-21.84763088 -7.04508415 -9.58616046 -7.34640334 0 0 Z " fill="#F9FCFD" transform="translate(966.08984375,786.6015625)"/>
<path d="M0 0 C5.61 0 11.22 0 17 0 C17.33 1.32 17.66 2.64 18 4 C19.051875 3.34 20.10375 2.68 21.1875 2 C26.93733549 -0.83917277 32.73104617 -1.03961454 39 0 C44.02535738 2.3561255 47.71838041 5.89990915 50 11 C51.33876172 14.9317011 51.12606974 18.94590722 51.09765625 23.046875 C51.0962413 23.81807678 51.09482635 24.58927856 51.09336853 25.3838501 C51.08778534 27.83927338 51.07523595 30.29460442 51.0625 32.75 C51.05748283 34.41796743 51.0529203 36.08593629 51.04882812 37.75390625 C51.03867366 41.83600136 51.01909507 45.9178978 51 50 C45.39 50 39.78 50 34 50 C33.97421875 47.80859375 33.9484375 45.6171875 33.921875 43.359375 C33.88343421 41.23115328 33.83828105 39.1031722 33.79248047 36.97509766 C33.76429912 35.49897804 33.74307034 34.02270831 33.72900391 32.54638672 C33.70753302 30.42076943 33.66086957 28.29695121 33.609375 26.171875 C33.58842773 24.8940918 33.56748047 23.61630859 33.54589844 22.29980469 C32.91448441 18.48308195 32.08119986 17.2692526 29 15 C26 14.33333333 26 14.33333333 23 15 C20.15219381 17.23206431 19.15002334 18.54992999 18 22 C17.84929203 24.13661258 17.7514034 26.27712124 17.68359375 28.41796875 C17.64169922 29.67158203 17.59980469 30.92519531 17.55664062 32.21679688 C17.51732422 33.52712891 17.47800781 34.83746094 17.4375 36.1875 C17.39429008 37.52279978 17.350675 38.85808652 17.30664062 40.19335938 C17.20043566 43.46211234 17.09970215 46.73104223 17 50 C11.39 50 5.78 50 0 50 C0 33.5 0 17 0 0 Z " fill="#F4FAFD" transform="translate(789,795)"/>
<path d="M0 0 C15.84 0 31.68 0 48 0 C48 4.62 48 9.24 48 14 C37.77 14 27.54 14 17 14 C17 18.62 17 23.24 17 28 C26.24 28 35.48 28 45 28 C45 32.29 45 36.58 45 41 C35.76 41 26.52 41 17 41 C17 48.26 17 55.52 17 63 C11.39 63 5.78 63 0 63 C0 42.21 0 21.42 0 0 Z " fill="#FBFCFE" transform="translate(632,781)"/>
<path d="M0 0 C5.28 0 10.56 0 16 0 C16.03738281 1.87945313 16.07476563 3.75890625 16.11328125 5.6953125 C16.1789482 8.17189471 16.24539529 10.64845633 16.3125 13.125 C16.33505859 14.3625 16.35761719 15.6 16.38085938 16.875 C16.4340332 18.67324219 16.4340332 18.67324219 16.48828125 20.5078125 C16.51446533 21.60754395 16.54064941 22.70727539 16.56762695 23.84033203 C17.08358058 27.61078477 18.23838568 31.23838568 21 34 C24.81291008 34.43328524 26.54574556 34.29274175 29.8125 32.1875 C33.3046365 28.6953635 33.16069168 25.53895326 33.31640625 20.80078125 C33.37924805 18.98803711 33.37924805 18.98803711 33.44335938 17.13867188 C33.48267578 15.87603516 33.52199219 14.61339844 33.5625 13.3125 C33.62727539 11.40114258 33.62727539 11.40114258 33.69335938 9.45117188 C33.79954789 6.30091273 33.90028813 3.1504708 34 0 C39.28 0 44.56 0 50 0 C50 15.84 50 31.68 50 48 C44.72 48 39.44 48 34 48 C33.67 47.01 33.34 46.02 33 45 C31.948125 45.66 30.89625 46.32 29.8125 47 C24.08498384 49.85865334 18.2580927 49.80775903 12 49 C6.42934222 46.36126737 2.21689909 41.79583029 0 36 C-0.16858166 33.20915781 -0.23284241 30.52228007 -0.1953125 27.734375 C-0.1924826 26.94097717 -0.18965271 26.14757935 -0.18673706 25.33013916 C-0.17556779 22.80327083 -0.15046944 20.27676068 -0.125 17.75 C-0.11496598 16.0338593 -0.10584087 14.31771302 -0.09765625 12.6015625 C-0.07734305 8.40079361 -0.03818906 4.20079639 0 0 Z " fill="#FBFDFD" transform="translate(999,796)"/>
<path d="M0 0 C1.91003656 3.28557729 2.3863181 6.11897934 2.8125 9.875 C4.26535805 19.87606935 6.742172 31.37019984 15 38 C23.83854947 44.07774413 35.65808764 45.26956191 46 47 C42.39581639 49.19148853 39.03042752 49.45689744 34.875 49.875 C25.19362972 51.02308118 16.61446135 53.46588092 10 61 C2.94805249 70.32676928 2.61665419 85.77264096 2 97 C1.34 97 0.68 97 0 97 C0 92.71 0 88.42 0 84 C-0.66 84 -1.32 84 -2 84 C-2.24234375 82.77023437 -2.4846875 81.54046875 -2.734375 80.2734375 C-3.0722278 78.64048232 -3.41080808 77.00767754 -3.75 75.375 C-3.90726563 74.56675781 -4.06453125 73.75851562 -4.2265625 72.92578125 C-5.70618541 65.92602673 -8.38068949 60.62064921 -14.21875 56.15625 C-23.66781417 50.02264694 -35.08413036 49.3791812 -46 48 C-42.27169543 45.51446362 -38.77091513 45.23073674 -34.4375 44.625 C-24.88721983 43.15696867 -15.00690831 41.4131696 -8.734375 33.37890625 C-2.56007333 23.83849434 -1.25863907 11.08861025 0 0 Z " fill="#F5FAFD" transform="translate(764,609)"/>
<path d="M0 0 C0.66 0 1.32 0 2 0 C2.09498779 0.68513672 2.18997559 1.37027344 2.2878418 2.07617188 C2.73502922 5.22054967 3.21101325 8.35993405 3.6875 11.5 C3.91083008 13.11648438 3.91083008 13.11648438 4.13867188 14.765625 C5.4074879 22.92585353 7.65005179 29.19365703 13.875 34.8125 C23.72611459 41.70828021 35.30896605 42.22467838 47 43 C47 43.66 47 44.32 47 45 C45.74445313 45.18175781 44.48890625 45.36351562 43.1953125 45.55078125 C24.6688462 47.57324502 24.6688462 47.57324502 10 58 C5.92956085 64.33027509 4.63883372 71.19770444 3.25 78.5 C2.91935547 80.16289063 2.91935547 80.16289063 2.58203125 81.859375 C2.04436797 84.57106804 1.5173243 87.28436676 1 90 C0.67 90 0.34 90 0 90 C-0.13462646 89.09459473 -0.13462646 89.09459473 -0.27197266 88.17089844 C-2.57360558 68.76726014 -2.57360558 68.76726014 -13.0625 53 C-21.98870304 47.72275029 -32.8862696 46.25800902 -43 45 C-43 44.34 -43 43.68 -43 43 C-41.80503906 42.81824219 -40.61007812 42.63648438 -39.37890625 42.44921875 C-21.91829564 40.09485896 -21.91829564 40.09485896 -8 30 C-2.01510941 21.53356941 -0.64753143 10.09255884 0 0 Z " fill="#F6FBFD" transform="translate(851,657)"/>
<path d="M0 0 C0.99 0.66 1.98 1.32 3 2 C2.52269162 3.4589426 2.04308958 4.91713496 1.5625 6.375 C1.29566406 7.18710937 1.02882813 7.99921875 0.75390625 8.8359375 C0 11 0 11 -1 13 C-1.60585938 12.855625 -2.21171875 12.71125 -2.8359375 12.5625 C-8.98654607 11.19990364 -14.71013545 10.75911157 -21 11 C-21.33 12.32 -21.66 13.64 -22 15 C-20.26363281 15.38091797 -20.26363281 15.38091797 -18.4921875 15.76953125 C-16.9530329 16.11677954 -15.41397547 16.46445867 -13.875 16.8125 C-13.11445312 16.97814453 -12.35390625 17.14378906 -11.5703125 17.31445312 C-5.79989681 18.63269464 0.1659386 20.15697508 4 25 C5.24266632 28.72799895 5.52902513 32.12782994 5 36 C2.74083062 40.35099288 0.13590215 43.36806227 -4 46 C-9.69188009 47.70264664 -14.94462425 48.41715129 -20.875 48.4375 C-22.0503833 48.44330078 -22.0503833 48.44330078 -23.24951172 48.44921875 C-29.7252824 48.32058768 -34.64965955 46.76405861 -40 43 C-39.35474023 41.5414128 -38.7087728 40.08313863 -38.0625 38.625 C-37.52302734 37.40683594 -37.52302734 37.40683594 -36.97265625 36.1640625 C-36.3430097 34.76316215 -35.68687358 33.37374716 -35 32 C-33.824375 32.495 -32.64875 32.99 -31.4375 33.5 C-24.78535265 35.77068491 -17.93173069 35.24658331 -11 35 C-11.33 33.68 -11.66 32.36 -12 31 C-13.15757812 30.82984375 -14.31515625 30.6596875 -15.5078125 30.484375 C-17.04699798 30.24035779 -18.58605394 29.99552264 -20.125 29.75 C-21.26582031 29.58564453 -21.26582031 29.58564453 -22.4296875 29.41796875 C-28.41217053 28.43807929 -32.51615879 26.53646497 -36.84375 22.1171875 C-39.22442536 17.75797788 -38.66155695 12.79147071 -38 8 C-36.29880039 3.84151207 -32.85427028 1.68345006 -29 -0.375 C-20.07739774 -3.93218363 -9.07402382 -2.56096143 0 0 Z " fill="#F6FAFD" transform="translate(883,797)"/>
<path d="M0 0 C5.94 0 11.88 0 18 0 C18 22.44 18 44.88 18 68 C12.39 68 6.78 68 1 68 C0 67 0 67 -0.12025452 64.33616638 C-0.11803391 63.14813919 -0.11581329 61.960112 -0.11352539 60.73608398 C-0.11367142 60.08244873 -0.11381744 59.42881348 -0.1139679 58.75537109 C-0.11326883 56.58557872 -0.10547678 54.41587121 -0.09765625 52.24609375 C-0.09579205 50.74536689 -0.09436816 49.24463943 -0.09336853 47.74391174 C-0.08954352 43.78681774 -0.0797134 39.82976022 -0.06866455 35.87268066 C-0.05845006 31.83765151 -0.05387083 27.80261647 -0.04882812 23.76757812 C-0.0380911 15.84503344 -0.02049445 7.92252546 0 0 Z " fill="#EEF7FD" transform="translate(974,777)"/>
<path d="M0 0 C2.97 0 5.94 0 9 0 C9.20681396 0.69150146 9.41362793 1.38300293 9.62670898 2.09545898 C10.56034724 5.21047054 11.49885583 8.32399341 12.4375 11.4375 C12.76298828 12.52611328 13.08847656 13.61472656 13.42382812 14.73632812 C13.73642578 15.77080078 14.04902344 16.80527344 14.37109375 17.87109375 C14.65911865 18.82943115 14.94714355 19.78776855 15.24389648 20.77514648 C15.7989128 22.94623784 15.7989128 22.94623784 17 24 C17.25394531 23.10539063 17.50789063 22.21078125 17.76953125 21.2890625 C19.79422697 14.17608654 21.85524232 7.07770034 24 0 C26.97 0 29.94 0 33 0 C35.64 7.59 38.28 15.18 41 23 C42.88622666 17.30195505 42.88622666 17.30195505 44.76904297 11.6027832 C46.07053365 7.68468988 47.40156623 3.80985914 49 0 C51.64 0 54.28 0 57 0 C55.41017723 5.62143076 53.74620216 11.21853742 52.0625 16.8125 C51.81048828 17.65103516 51.55847656 18.48957031 51.29882812 19.35351562 C50.79153054 21.04148021 50.28323679 22.72914574 49.77392578 24.41650391 C49.23402715 26.21877751 48.70173896 28.02334088 48.17529297 29.82958984 C47.90990723 30.73531738 47.64452148 31.64104492 47.37109375 32.57421875 C47.13189209 33.39881592 46.89269043 34.22341309 46.64624023 35.07299805 C46 37 46 37 45 38 C42.03 38 39.06 38 36 38 C33.69 30.08 31.38 22.16 29 14 C26.67780243 20.11265214 26.67780243 20.11265214 24.61328125 26.28125 C24.39736328 26.97734375 24.18144531 27.6734375 23.95898438 28.390625 C23.74564453 29.08671875 23.53230469 29.7828125 23.3125 30.5 C22.97508789 31.59054687 22.97508789 31.59054687 22.63085938 32.703125 C22.08511248 34.46809368 21.54224521 36.23395236 21 38 C17.7 38 14.4 38 11 38 C9.42987374 32.91075614 7.86338538 27.82041253 6.30029297 22.72900391 C5.76776973 20.99627272 5.23424471 19.26384909 4.69970703 17.53173828 C3.93259803 15.04539428 3.16907066 12.55797502 2.40625 10.0703125 C2.16563843 9.29317902 1.92502686 8.51604553 1.67712402 7.71536255 C0 2.22774341 0 2.22774341 0 0 Z " fill="#1F97F2" transform="translate(265,926)"/>
<path d="M0 0 C2.97 0 5.94 0 9 0 C9.20681396 0.6612085 9.41362793 1.32241699 9.62670898 2.00366211 C10.56043664 4.98262306 11.4989024 7.96007005 12.4375 10.9375 C12.76298828 11.97841797 13.08847656 13.01933594 13.42382812 14.09179688 C13.73642578 15.08115234 14.04902344 16.07050781 14.37109375 17.08984375 C14.65911865 18.00628662 14.94714355 18.92272949 15.24389648 19.86694336 C15.81203937 21.95544926 15.81203937 21.95544926 17 23 C19.31 15.41 21.62 7.82 24 0 C26.97 0 29.94 0 33 0 C40 20.3 40 20.3 40 26 C40.66 26 41.32 26 42 26 C42.0825 24.948125 42.165 23.89625 42.25 22.8125 C43.21765302 14.95908416 45.98608741 7.28474836 49 0 C51.64 0 54.28 0 57 0 C55.09002186 8.78589943 52.34508004 17.20557517 49.42553711 25.69995117 C49.12784424 26.57111572 48.83015137 27.44228027 48.5234375 28.33984375 C48.25450684 29.11706787 47.98557617 29.89429199 47.70849609 30.69506836 C46.96569852 33.11159211 46.45546995 35.51469441 46 38 C44.54257537 38.08096803 43.08387193 38.13917774 41.625 38.1875 C40.81289063 38.22230469 40.00078125 38.25710938 39.1640625 38.29296875 C38.44992187 38.19628906 37.73578125 38.09960938 37 38 C34.96059624 34.94089436 34.37223221 32.91586288 33.5625 29.375 C32.3108314 24.12565516 30.78215588 19.09187393 29 14 C28.608125 15.175625 28.21625 16.35125 27.8125 17.5625 C25.54166667 24.375 23.27083333 31.1875 21 38 C18.03 38 15.06 38 12 38 C9.7505376 33.01206165 8.03779046 28.07623522 6.5625 22.8125 C4.77161107 16.55362013 2.83958084 10.37302479 0.69921875 4.22265625 C0 2 0 2 0 0 Z " fill="#1D96F2" transform="translate(841,926)"/>
<path d="M0 0 C2.9375 1.5 2.9375 1.5 5 3 C5.33 2.34 5.66 1.68 6 1 C8.31 1 10.62 1 13 1 C13.07453622 5.1625612 13.12878254 9.3247618 13.16479492 13.48779297 C13.17981825 14.90192437 13.20024305 16.31600968 13.22631836 17.72998047 C13.26298954 19.77062397 13.27979036 21.81064792 13.29296875 23.8515625 C13.3086792 25.07697754 13.32438965 26.30239258 13.34057617 27.56494141 C12.86684757 32.34297822 11.49215116 35.75216232 7.78125 38.85546875 C4.21210785 40.3242309 1.3519926 40.3625759 -2.5 40.3125 C-3.7890625 40.30863281 -5.078125 40.30476562 -6.40625 40.30078125 C-9.73323966 40.02232668 -12.01825509 39.43926533 -15 38 C-14.125 33.25 -14.125 33.25 -13 31 C-12.38125 31.33 -11.7625 31.66 -11.125 32 C-6.80316046 33.38298865 -2.50699165 33.54243439 2 33 C2.66 32.34 3.32 31.68 4 31 C4 29.68 4 28.36 4 27 C3.01 27.33 2.02 27.66 1 28 C-3.06311767 28.48953225 -7.16483044 28.90076551 -10.91796875 27.05859375 C-14.94736736 23.88482052 -16.49719932 20.87867201 -17.35546875 15.96484375 C-17.69318649 12.24994865 -17.5556872 9.88404782 -15.5390625 6.67578125 C-10.75642739 1.05568049 -7.55712756 -0.52118121 0 0 Z " fill="#269AF3" transform="translate(664,934)"/>
<path d="M0 0 C2.64 0 5.28 0 8 0 C8 12.87 8 25.74 8 39 C5.69 39 3.38 39 1 39 C1 38.34 1 37.68 1 37 C0.360625 37.495 -0.27875 37.99 -0.9375 38.5 C-5.05530773 40.51688542 -8.49302735 40.85695959 -13 40 C-16.84546344 37.94691359 -19.4085494 35.04703727 -21 31 C-21.62977827 25.74208377 -22.16577147 19.98504473 -19.1875 15.375 C-16.57593515 12.53958673 -15.02121338 11.08164172 -11.1171875 10.76953125 C-10.04726562 10.78371094 -8.97734375 10.79789063 -7.875 10.8125 C-6.79992188 10.81894531 -5.72484375 10.82539062 -4.6171875 10.83203125 C-2 11 -2 11 -1 12 C-0.67 8.04 -0.34 4.08 0 0 Z " fill="#1D95F0" transform="translate(1045,924)"/>
<path d="M0 0 C5.61 0 11.22 0 17 0 C17 15.84 17 31.68 17 48 C11.39 48 5.78 48 0 48 C0 32.16 0 16.32 0 0 Z " fill="#F8FCFD" transform="translate(765,796)"/>
<path d="M0 0 C4.41026006 2.45014448 7.08812558 5.30125117 9.375 9.875 C9.97342057 15.85920569 8.74185471 20.00942 5.375 24.875 C1.70132044 28.45907762 -1.20737316 29.14515703 -6.1875 29.3125 C-10.45894351 29.12728836 -13.40399788 28.90078987 -16.625 25.875 C-20.44889454 20.91427194 -21.37211588 16.78954775 -21.1484375 10.53515625 C-20.30004269 6.22353787 -18.02864148 3.55263538 -14.625 0.875 C-9.6697583 -2.01474956 -5.42337867 -1.68311752 0 0 Z " fill="#2097F2" transform="translate(634.625,935.125)"/>
<path d="M0 0 C2.1574966 3.2362449 2.36724284 4.83786769 2.8125 8.625 C3.84238455 15.11877588 5.43575118 20.97082001 10.61328125 25.37109375 C16.72524821 28.94404232 24.09623067 29.2630808 31 30 C31 30.66 31 31.32 31 32 C30.05898438 32.10957031 29.11796875 32.21914063 28.1484375 32.33203125 C26.28058594 32.56986328 26.28058594 32.56986328 24.375 32.8125 C23.14523437 32.96332031 21.91546875 33.11414063 20.6484375 33.26953125 C14.75150709 34.45018006 10.21323181 36.8006621 6.390625 41.41796875 C3.18318288 47.37335988 2.2599939 54.41097309 1 61 C0.34 61 -0.32 61 -1 61 C-1.09796875 59.99839844 -1.1959375 58.99679687 -1.296875 57.96484375 C-2.19093981 47.75773148 -2.19093981 47.75773148 -7 39 C-13.51449217 33.76866538 -20.88978266 32.83985249 -29 32 C-29 31.34 -29 30.68 -29 30 C-28.32195313 29.90203125 -27.64390625 29.8040625 -26.9453125 29.703125 C-19.31271365 28.47683488 -11.60158833 27.04749781 -5.5625 21.9375 C-1.95593528 15.15715832 -0.71491098 7.57805642 0 0 Z " fill="#F2F9FD" transform="translate(748,707)"/>
<path d="M0 0 C3.98913819 4.47561846 4.81531026 8.57469979 4.5 14.4375 C3.80975041 19.25281258 2.05858769 21.54152104 -1.4375 24.875 C-6.54422968 28.24182621 -12.71654904 26.99305387 -18.4375 25.875 C-22.73509397 22.9256708 -24.34784205 19.92705049 -25.4375 14.875 C-26.09855558 8.92549977 -25.48268175 6.04445391 -21.82421875 1.3203125 C-16.27964599 -4.45853799 -6.35895718 -4.73804653 0 0 Z " fill="#1E96F2" transform="translate(415.4375,937.125)"/>
<path d="M0 0 C2.97 0 5.94 0 9 0 C9.01981934 0.80219971 9.03963867 1.60439941 9.06005859 2.4309082 C9.15519495 6.05844177 9.2649208 9.68539045 9.375 13.3125 C9.4059375 14.57513672 9.436875 15.83777344 9.46875 17.13867188 C9.50742187 18.34716797 9.54609375 19.55566406 9.5859375 20.80078125 C9.6173584 21.91622314 9.6487793 23.03166504 9.68115234 24.1809082 C9.805249 27.20368786 9.805249 27.20368786 12 30 C14.13253645 30.47687303 14.13253645 30.47687303 16.5 30.375 C17.2940625 30.38273438 18.088125 30.39046875 18.90625 30.3984375 C19.94265625 30.20121094 19.94265625 30.20121094 21 30 C23.32452624 26.51321064 23.29773734 24.93032429 23.4140625 20.80078125 C23.45273437 19.59228516 23.49140625 18.38378906 23.53125 17.13867188 C23.5621875 15.87603516 23.593125 14.61339844 23.625 13.3125 C23.66367187 12.03826172 23.70234375 10.76402344 23.7421875 9.45117188 C23.83657686 6.30092708 23.9221583 3.15069009 24 0 C26.97 0 29.94 0 33 0 C33.14620188 4.3329738 33.2343773 8.66530638 33.3125 13 C33.35439453 14.22074219 33.39628906 15.44148437 33.43945312 16.69921875 C33.52885409 23.31488982 33.27099482 28.11001259 29.47338867 33.64453125 C27.70987379 35.2669065 26.33820531 35.61555199 24 36 C24 36.66 24 37.32 24 38 C9.64744042 38.57495417 9.64744042 38.57495417 5 35 C1.09017754 29.92779789 -0.12849963 26.34242455 -0.09765625 20.01953125 C-0.09443359 18.85615234 -0.09121094 17.69277344 -0.08789062 16.49414062 C-0.07951172 15.27919922 -0.07113281 14.06425781 -0.0625 12.8125 C-0.05798828 11.58595703 -0.05347656 10.35941406 -0.04882812 9.09570312 C-0.03703065 6.06375332 -0.02056921 3.03190094 0 0 Z " fill="#279AF2" transform="translate(462,926)"/>
<path d="M0 0 C0.14695312 1.39412109 0.14695312 1.39412109 0.296875 2.81640625 C0.44640625 4.05261719 0.5959375 5.28882813 0.75 6.5625 C0.88921875 7.78066406 1.0284375 8.99882813 1.171875 10.25390625 C2.88308461 17.99470822 7.19393755 22.61955451 12.75 27.9375 C13.35199219 28.52595703 13.95398438 29.11441406 14.57421875 29.72070312 C16.04264648 31.15416829 17.52036977 32.578101 19 34 C18.01 34.495 18.01 34.495 17 35 C14.7219096 34.10752102 12.61454664 33.16098888 10.4375 32.0625 C9.80344238 31.74909668 9.16938477 31.43569336 8.51611328 31.11279297 C4.54226525 29.05860988 1.53453547 26.84272213 -1.625 23.625 C-5.91695981 19.45974011 -9.02686659 19.54157456 -14.8203125 19.453125 C-19.96080564 18.72057315 -23.61487301 15.92747962 -27.86328125 13.078125 C-32.05323618 10.30221464 -36.4578582 8.13265349 -41 6 C-32.80593795 1.44562597 -22.48524342 1.72304074 -13.31982422 1.34155273 C-8.88593498 1.15074812 -4.37089863 0 0 0 Z " fill="#1E97F4" transform="translate(608,535)"/>
<path d="M0 0 C4.65662142 5.22106038 5.0625 8.12844168 5.0625 15.3125 C-1.8675 15.3125 -8.7975 15.3125 -15.9375 15.3125 C-13.5413751 19.44913812 -13.5413751 19.44913812 -10.81640625 19.703125 C-10.05199219 19.65671875 -9.28757812 19.6103125 -8.5 19.5625 C-7.35724609 19.50835938 -7.35724609 19.50835938 -6.19140625 19.453125 C-5.44761719 19.40671875 -4.70382812 19.3603125 -3.9375 19.3125 C-2.6175 19.3125 -1.2975 19.3125 0.0625 19.3125 C2.0625 21.3125 2.0625 21.3125 2.0625 24.3125 C-1.39023364 27.22574401 -4.41325382 27.74225639 -8.890625 27.5234375 C-13.96389945 27.00061914 -17.6680616 26.00553673 -21.375 22.4375 C-24.58736552 18.29865709 -24.79033921 14.31410211 -24.52734375 9.1953125 C-23.39785333 3.6750216 -20.22709044 0.83889363 -15.6875 -2.1875 C-10.1631044 -3.19193556 -4.89760079 -2.81351535 0 0 Z " fill="#1C96F2" transform="translate(346.9375,936.6875)"/>
<path d="M0 0 C3.52181534 2.29683609 5.59754202 4.32484491 7.875 7.875 C7.875 10.515 7.875 13.155 7.875 15.875 C0.945 15.875 -5.985 15.875 -13.125 15.875 C-9.94216931 20.87385423 -9.94216931 20.87385423 -7.125 21.3984375 C-6.465 21.34945312 -5.805 21.30046875 -5.125 21.25 C-4.43019531 21.21003906 -3.73539063 21.17007813 -3.01953125 21.12890625 C-1.0318433 20.9123747 -1.0318433 20.9123747 1.1875 20.1875 C1.744375 20.084375 2.30125 19.98125 2.875 19.875 C4.625 21.3125 4.625 21.3125 5.875 22.875 C4.93208604 25.23228489 4.3040911 26.6017671 2.1328125 27.984375 C-2.15669194 29.67642865 -6.60046154 29.39377872 -11.125 28.875 C-15.56817092 26.85537686 -18.20462031 24.26723488 -20.41796875 19.859375 C-21.76592705 16.07615502 -22.13661793 12.78748259 -21.125 8.875 C-16.03346661 0.77294142 -9.59250781 -3.45330281 0 0 Z " fill="#1E98F3" transform="translate(919.125,935.125)"/>
<path d="M0 0 C3.52343994 2.52768518 6.3954661 4.59170549 7.84375 8.796875 C7.84375 11.106875 7.84375 13.416875 7.84375 15.796875 C0.91375 15.796875 -6.01625 15.796875 -13.15625 15.796875 C-12.16625 17.446875 -11.17625 19.096875 -10.15625 20.796875 C-8.02293986 21.43628548 -8.02293986 21.43628548 -5.71875 21.171875 C-4.95691406 21.13835938 -4.19507813 21.10484375 -3.41015625 21.0703125 C-1.14644569 20.85416006 -1.14644569 20.85416006 1.01953125 20.18359375 C1.62152344 20.05597656 2.22351563 19.92835938 2.84375 19.796875 C4.59375 21.234375 4.59375 21.234375 5.84375 22.796875 C4.86517864 25.73258907 4.15080349 26.64334826 1.34375 28.046875 C-3.7377017 29.13575751 -9.27117663 30.25392413 -14.09765625 27.81640625 C-16.44743379 25.97621902 -17.97158303 24.28492341 -19.03125 21.484375 C-19.093125 20.6490625 -19.093125 20.6490625 -19.15625 19.796875 C-19.81625 19.796875 -20.47625 19.796875 -21.15625 19.796875 C-21.70946851 15.01987705 -22.20660505 10.65131541 -19.7734375 6.35546875 C-14.72881285 0.42639692 -7.81937696 -4.36298569 0 0 Z " fill="#229AF2" transform="translate(981.15625,935.203125)"/>
<path d="M0 0 C4.07592745 2.23022446 6.24910972 4.68571945 8.3125 8.8125 C8.3125 11.1225 8.3125 13.4325 8.3125 15.8125 C1.3825 15.8125 -5.5475 15.8125 -12.6875 15.8125 C-11.6975 17.4625 -10.7075 19.1125 -9.6875 20.8125 C-7.51996199 21.45164609 -7.51996199 21.45164609 -5.1875 21.1875 C-4.4140625 21.15398438 -3.640625 21.12046875 -2.84375 21.0859375 C-0.50830448 20.8607499 -0.50830448 20.8607499 2.3125 19.8125 C4.5 21.25 4.5 21.25 6.3125 22.8125 C5.36111101 25.19097246 4.73940958 26.5445061 2.5390625 27.92578125 C-2.51349073 29.93793841 -8.02769065 29.39650699 -13.0625 27.625 C-16.78252002 25.05641475 -19.13738495 23.03179975 -20.2578125 18.51171875 C-21.06557468 12.84879028 -20.81099951 8.79057735 -17.6875 3.8125 C-12.25601598 -1.70297605 -7.39141786 -2.38028711 0 0 Z " fill="#2099F3" transform="translate(793.6875,935.1875)"/>
<path d="M0 0 C3.29071143 2.07457894 5.54883834 3.66534011 7.875 6.8125 C7.875 9.7825 7.875 12.7525 7.875 15.8125 C1.275 15.8125 -5.325 15.8125 -12.125 15.8125 C-11.135 17.4625 -10.145 19.1125 -9.125 20.8125 C-6.98831858 21.4150882 -6.98831858 21.4150882 -4.6875 21.125 C-3.92566406 21.07988281 -3.16382813 21.03476562 -2.37890625 20.98828125 C-1.63511719 20.93027344 -0.89132812 20.87226562 -0.125 20.8125 C1.195 20.8125 2.515 20.8125 3.875 20.8125 C4.535 22.1325 5.195 23.4525 5.875 24.8125 C3.56736316 27.44979925 1.60303446 28.67566712 -1.84765625 29.32421875 C-7.64852944 29.6542305 -11.32890528 29.31410987 -15.8125 25.4375 C-19.52489031 21.70205137 -20.34423625 19.39640038 -20.5625 14.125 C-20.5298955 8.6930897 -19.61640734 5.96286806 -15.828125 2.1171875 C-10.76859706 -1.7586894 -6.0302585 -2.29149823 0 0 Z " fill="#1C97F2" transform="translate(703.125,935.1875)"/>
<path d="M0 0 C3.125 2.1875 3.125 2.1875 5.125 5.1875 C5.35205078 7.54760742 5.35205078 7.54760742 5.3203125 10.29296875 C5.31386719 11.27587891 5.30742188 12.25878906 5.30078125 13.27148438 C5.28402344 14.29564453 5.26726563 15.31980469 5.25 16.375 C5.24097656 17.41076172 5.23195313 18.44652344 5.22265625 19.51367188 C5.1990786 22.07184685 5.1661703 24.62955748 5.125 27.1875 C2.125 27.1875 -0.875 27.1875 -3.875 27.1875 C-4.205 27.5175 -4.535 27.8475 -4.875 28.1875 C-13.92086709 29.38653272 -13.92086709 29.38653272 -17.71484375 27.05859375 C-19.92216097 24.60815174 -20.84706208 22.3243958 -21.5 19.125 C-20.875 16.1875 -20.875 16.1875 -19.1875 13.3125 C-14.03726724 10.0085771 -8.83085939 10.79509345 -2.875 11.1875 C-3.535 9.5375 -4.195 7.8875 -4.875 6.1875 C-6.31239513 6.16037934 -7.74993863 6.14104933 -9.1875 6.125 C-9.98800781 6.11339844 -10.78851562 6.10179687 -11.61328125 6.08984375 C-14.04361334 6.09092145 -14.04361334 6.09092145 -16.875 7.1875 C-19.875 3.4375 -19.875 3.4375 -19.875 1.1875 C-13.02089735 -1.74997256 -7.01685342 -3.77718818 0 0 Z " fill="#1F97F2" transform="translate(1012.875,935.8125)"/>
<path d="M0 0 C2.31 0 4.62 0 7 0 C7 4.62 7 9.24 7 14 C7.66 14 8.32 14 9 14 C9.33 13.01 9.66 12.02 10 11 C13.06429776 9.46785112 15.6165642 9.77061452 19 10 C22.18249662 11.51891884 24.79725882 13.2382786 27 16 C27.34057617 18.4519043 27.34057617 18.4519043 27.29296875 21.32421875 C27.28330078 22.35224609 27.27363281 23.38027344 27.26367188 24.43945312 C27.23853516 25.51130859 27.21339844 26.58316406 27.1875 27.6875 C27.16719727 29.31268555 27.16719727 29.31268555 27.14648438 30.97070312 C27.11110643 33.64763405 27.06174189 36.32356838 27 39 C24.69 39 22.38 39 20 39 C19.95101562 37.73542969 19.90203125 36.47085938 19.8515625 35.16796875 C19.7765262 33.50779053 19.70097873 31.84763536 19.625 30.1875 C19.5940625 29.35412109 19.563125 28.52074219 19.53125 27.66210938 C19.49257813 26.85966797 19.45390625 26.05722656 19.4140625 25.23046875 C19.36693115 24.12288208 19.36693115 24.12288208 19.31884766 22.99291992 C19.09165386 20.68650412 19.09165386 20.68650412 17 18 C12.89887288 17.46151276 12.89887288 17.46151276 9.34057617 19.2590332 C7.70235507 21.38654271 7.5827005 22.5678458 7.48828125 25.23046875 C7.45283203 26.03291016 7.41738281 26.83535156 7.38085938 27.66210938 C7.34702148 28.91217773 7.34702148 28.91217773 7.3125 30.1875 C7.27833984 31.03248047 7.24417969 31.87746094 7.20898438 32.74804688 C7.12658529 34.83156649 7.06161355 36.91576216 7 39 C4.69 39 2.38 39 0 39 C0 26.13 0 13.26 0 0 Z " fill="#1993F1" transform="translate(740,924)"/>
<path d="M0 0 C0.33 0 0.66 0 1 0 C1 4.62 1 9.24 1 14 C5.62 14 10.24 14 15 14 C15 14.33 15 14.66 15 15 C9.72 15 4.44 15 -1 15 C-0.46375 16.381875 0.0725 17.76375 0.625 19.1875 C1.74219683 22.48193158 2.10109955 23.61893245 1.1875 27.0625 C0.795625 27.701875 0.40375 28.34125 0 29 C-0.33 29 -0.66 29 -1 29 C-1.33 32.96 -1.66 36.92 -2 41 C-2.33 41 -2.66 41 -3 41 C-3 36.71 -3 32.42 -3 28 C-12.24 28 -21.48 28 -31 28 C-31 23.38 -31 18.76 -31 14 C-20.77 14 -10.54 14 0 14 C0 9.38 0 4.76 0 0 Z " fill="#2D9EF4" transform="translate(680,781)"/>
<path d="M0 0 C10.23 0 20.46 0 31 0 C31 2.31 31 4.62 31 7 C27.37 7 23.74 7 20 7 C20 17.23 20 27.46 20 38 C17.36 38 14.72 38 12 38 C12 27.77 12 17.54 12 7 C8.04 7 4.08 7 0 7 C0 4.69 0 2.38 0 0 Z " fill="#1E96F0" transform="translate(583,926)"/>
<path d="M0 0 C0.33 0.99 0.66 1.98 1 3 C0.01 4.485 0.01 4.485 -1 6 C-4.125 6.1875 -4.125 6.1875 -7 6 C-7.33 7.65 -7.66 9.3 -8 11 C-5.36 11 -2.72 11 0 11 C0 13.31 0 15.62 0 18 C-2.31 18 -4.62 18 -7 18 C-7 25.26 -7 32.52 -7 40 C-9.97 40 -12.94 40 -16 40 C-16 32.74 -16 25.48 -16 18 C-17.32 18 -18.64 18 -20 18 C-20 15.69 -20 13.38 -20 11 C-18.68 11 -17.36 11 -16 11 C-15.9175 9.9275 -15.835 8.855 -15.75 7.75 C-15 4 -15 4 -13.625 1.5625 C-9.36229867 -0.97482222 -4.83900966 -0.30035232 0 0 Z " fill="#2D9DF2" transform="translate(389,924)"/>
<path d="M0 0 C2.31 0 4.62 0 7 0 C7.07453622 4.1625612 7.12878254 8.3247618 7.16479492 12.48779297 C7.17981825 13.90192437 7.20024305 15.31600968 7.22631836 16.72998047 C7.26298954 18.77062397 7.27979036 20.81064792 7.29296875 22.8515625 C7.3086792 24.07697754 7.32438965 25.30239258 7.34057617 26.56494141 C6.86684757 31.34297822 5.49215116 34.75216232 1.78125 37.85546875 C-1.78789215 39.3242309 -4.6480074 39.3625759 -8.5 39.3125 C-9.7890625 39.30863281 -11.078125 39.30476562 -12.40625 39.30078125 C-15.73323966 39.02232668 -18.01825509 38.43926533 -21 37 C-20.125 32.25 -20.125 32.25 -19 30 C-18.38125 30.33 -17.7625 30.66 -17.125 31 C-12.81912795 32.37787906 -8.48135446 32.70638299 -4 32 C-1.00164724 29.69971163 -0.49974835 27.69813776 0 24 C-1.32 23.67 -2.64 23.34 -4 23 C-3.67 22.175 -3.34 21.35 -3 20.5 C-1.79040955 16.26643343 -1.56824938 13.38946462 -2 9 C-3.65373496 7.00966359 -3.65373496 7.00966359 -6 6 C-6.7425 5.608125 -7.485 5.21625 -8.25 4.8125 C-8.8275 4.544375 -9.405 4.27625 -10 4 C-6.86501708 2.14223235 -4.62528568 1.79859524 -1 2 C-0.67 1.34 -0.34 0.68 0 0 Z " fill="#1793F2" transform="translate(670,935)"/>
<path d="M0 0 C1.21945312 0.02449219 2.43890625 0.04898438 3.6953125 0.07421875 C6.875 0.3125 6.875 0.3125 9.875 1.3125 C9.36896008 3.48124252 8.87516187 5.31217627 7.875 7.3125 C3.915 7.3125 -0.045 7.3125 -4.125 7.3125 C-4.125 8.3025 -4.125 9.2925 -4.125 10.3125 C-3.29355469 10.49425781 -2.46210938 10.67601562 -1.60546875 10.86328125 C-0.51878906 11.11464844 0.56789063 11.36601563 1.6875 11.625 C3.30591797 11.99044922 3.30591797 11.99044922 4.95703125 12.36328125 C7.86388285 13.30888358 9.14517195 13.832883 10.875 16.3125 C11.52099009 21.39967196 11.52099009 21.39967196 10.875 24.3125 C6.59683357 28.70324976 3.4794452 29.48187827 -2.5 29.5625 C-4.21316406 29.60117187 -4.21316406 29.60117187 -5.9609375 29.640625 C-9.35436235 29.28871427 -10.67208921 28.60832784 -13.125 26.3125 C-12.465 24.3325 -11.805 22.3525 -11.125 20.3125 C-10.465 20.6425 -9.805 20.9725 -9.125 21.3125 C-5.26438967 22.59937011 -2.18349717 22.45007618 1.875 22.3125 C2.205 21.3225 2.535 20.3325 2.875 19.3125 C1.64523437 19.07466797 1.64523437 19.07466797 0.390625 18.83203125 C-8.33779213 16.9422663 -8.33779213 16.9422663 -11.9375 14.0625 C-13.56707812 10.28874014 -13.33335252 8.2218758 -12.125 4.3125 C-8.2379858 0.2894761 -5.49773187 -0.16925077 0 0 Z " fill="#1E97F1" transform="translate(513.125,934.6875)"/>
<path d="M0 0 C2.64 0 5.28 0 8 0 C8 2.31 8 4.62 8 7 C10.31 7 12.62 7 15 7 C15 9.31 15 11.62 15 14 C12.69 14 10.38 14 8 14 C8.33 18.62 8.66 23.24 9 28 C10.98 28.33 12.96 28.66 15 29 C15.33 30.98 15.66 32.96 16 35 C13.72751762 36.13624119 12.21697236 36.26446843 9.6875 36.375 C8.92824219 36.42398438 8.16898438 36.47296875 7.38671875 36.5234375 C3.62560792 35.6985785 2.25857941 34.07087552 0 31 C-0.58399822 28.0304685 -0.47657628 25.19893071 -0.3125 22.1875 C-0.28994141 21.39923828 -0.26738281 20.61097656 -0.24414062 19.79882812 C-0.18554161 17.86506071 -0.09586827 15.93227833 0 14 C-1.32 14 -2.64 14 -4 14 C-4 11.69 -4 9.38 -4 7 C-2.68 7 -1.36 7 0 7 C0 4.69 0 2.38 0 0 Z " fill="#259BF3" transform="translate(718,928)"/>
<path d="M0 0 C0.33 0 0.66 0 1 0 C1.08636719 1.02480469 1.17273438 2.04960938 1.26171875 3.10546875 C1.40249086 4.46626581 1.54448269 5.82693708 1.6875 7.1875 C1.74099609 7.86103516 1.79449219 8.53457031 1.84960938 9.22851562 C2.43054086 14.40638317 4.02278452 16.72752995 8 20 C11.37690049 22.13870364 15.16266365 22.96687098 19 24 C19 24.33 19 24.66 19 25 C18.34773437 25.02578125 17.69546875 25.0515625 17.0234375 25.078125 C11.31325929 25.44869704 7.35045012 25.96029632 3 30 C-0.2121627 34.75110882 -1.52786796 39.33441547 -2 45 C-2.66 45 -3.32 45 -4 45 C-4.03738281 44.35933594 -4.07476563 43.71867188 -4.11328125 43.05859375 C-4.64024488 36.12540556 -5.14885363 30.51172419 -10.625 25.6875 C-14.67900171 23.66049914 -18.55431625 22.75082659 -23 22 C-23 21.34 -23 20.68 -23 20 C-22.02160156 19.94392578 -22.02160156 19.94392578 -21.0234375 19.88671875 C-14.46266593 19.39320938 -9.75031624 18.52112322 -4.75 13.9375 C-2.62748438 10.37470593 -2.03771078 7.17282701 -1.39453125 3.109375 C-1 1 -1 1 0 0 Z " fill="#ECF6FD" transform="translate(929,702)"/>
<path d="M0 0 C4.57627119 3.15254237 4.57627119 3.15254237 6 6 C6.61623012 10.26680859 6.83061832 14.26213805 4.94140625 18.21484375 C2.94217104 20.86423675 1.2051191 22.5887292 -1.96875 23.671875 C-5.15995759 23.99099576 -7.16919675 23.55621574 -9.84375 21.765625 C-13.15435218 18.48625491 -14.42711379 15.58926453 -14.6875 10.9375 C-14.37202322 5.76368086 -12.79790794 3.44461418 -9 0 C-5.39965901 -1.20011366 -3.65462165 -0.95020163 0 0 Z " fill="#2098F3" transform="translate(1087,809)"/>
<path d="M0 0 C2.64 0 5.28 0 8 0 C8 13.2 8 26.4 8 40 C5.36 40 2.72 40 0 40 C0 26.8 0 13.6 0 0 Z " fill="#2198F2" transform="translate(947,924)"/>
<path d="M0 0 C2.7935023 0.89969656 4.9122306 1.9122306 7 4 C8.2549139 6.75611931 8.50934854 9.01830797 8 12 C6.30115755 15.07378109 4.18511579 17.40744211 1 19 C-6.16010499 19.46194226 -6.16010499 19.46194226 -9.5 17.625 C-11 16 -11 16 -11 14 C-11.66 14 -12.32 14 -13 14 C-13.70299213 7.20440945 -13.70299213 7.20440945 -11.91015625 4.1328125 C-8.28151633 0.10954596 -5.4994669 -0.96481875 0 0 Z " fill="#F0F8FD" transform="translate(776,771)"/>
<path d="M0 0 C2.64 0 5.28 0 8 0 C8.33 0.66 8.66 1.32 9 2 C9.66 1.34 10.32 0.68 11 0 C14.125 -0.125 14.125 -0.125 17 0 C17 1.98 17 3.96 17 6 C16.236875 6.268125 15.47375 6.53625 14.6875 6.8125 C12.02121681 7.99062513 10.8026325 8.76631022 9 11 C8.5005539 13.01792826 8.5005539 13.01792826 8.48828125 15.23046875 C8.45283203 16.03291016 8.41738281 16.83535156 8.38085938 17.66210938 C8.34702148 18.91217773 8.34702148 18.91217773 8.3125 20.1875 C8.27833984 21.03248047 8.24417969 21.87746094 8.20898438 22.74804688 C8.12658529 24.83156649 8.06161355 26.91576216 8 29 C5.36 29 2.72 29 0 29 C0 19.43 0 9.86 0 0 Z " fill="#289BF1" transform="translate(807,935)"/>
<path d="M0 0 C1.01869661 10.95098855 -4.10394779 22.02774663 -10 31 C-11.57858092 32.89182413 -13.11999392 34.3964654 -15 36 C-16.95063721 26.73447327 -16.84846317 19.95603144 -11.9296875 11.6953125 C-3.55652174 0 -3.55652174 0 0 0 Z " fill="#F3F9FD" transform="translate(693,623)"/>
<path d="M0 0 C2.31 0 4.62 0 7 0 C7.33 0.66 7.66 1.32 8 2 C8.66 1.34 9.32 0.68 10 0 C13.125 -0.125 13.125 -0.125 16 0 C16 1.98 16 3.96 16 6 C15.236875 6.268125 14.47375 6.53625 13.6875 6.8125 C11.02630693 7.98837601 9.80749242 8.77840514 8 11 C7.50176904 12.91965648 7.50176904 12.91965648 7.48828125 15.01171875 C7.45283203 15.76904297 7.41738281 16.52636719 7.38085938 17.30664062 C7.35830078 18.09232422 7.33574219 18.87800781 7.3125 19.6875 C7.27833984 20.48478516 7.24417969 21.28207031 7.20898438 22.10351562 C7.12661896 24.06851904 7.06162933 26.03423696 7 28 C4.69 28 2.38 28 0 28 C0 18.76 0 9.52 0 0 Z " fill="#1894F1" transform="translate(426,935)"/>
<path d="M0 0 C-0.33 0.99 -0.66 1.98 -1 3 C1.97 3.495 1.97 3.495 5 4 C5.13306769 8.6573692 4.47141819 12.58574544 3 17 C-6.52388173 17.90068234 -6.52388173 17.90068234 -9.84375 15.875 C-12.04347061 13.41949792 -12.97215051 11.13646249 -13.625 7.9375 C-11.95857094 0.10528343 -6.90018856 -0.58476174 0 0 Z " fill="#2499F0" transform="translate(1005,947)"/>
<path d="M0 0 C0.33 0 0.66 0 1 0 C1.18175781 0.61488281 1.36351562 1.22976563 1.55078125 1.86328125 C1.92783203 3.07564453 1.92783203 3.07564453 2.3125 4.3125 C2.67794922 5.51326172 2.67794922 5.51326172 3.05078125 6.73828125 C4.07575235 9.18049633 4.91338244 10.38582416 7 12 C9.03341887 12.77813652 9.03341887 12.77813652 11.1875 13.1875 C12.445625 13.455625 13.70375 13.72375 15 14 C15 14.33 15 14.66 15 15 C14.39671875 15.08636719 13.7934375 15.17273438 13.171875 15.26171875 C7.8602199 16.19232582 7.8602199 16.19232582 3.5625 19.3125 C2.09788426 21.83163908 0.94437713 24.24556671 0 27 C-2 24 -2 24 -2.75 21.5625 C-4.44388311 18.09003963 -6.719231 16.94167961 -10 15 C-10.99 14.34 -11.98 13.68 -13 13 C-12.113125 12.773125 -11.22625 12.54625 -10.3125 12.3125 C-6.45029987 10.78219429 -4.6220867 9.20477263 -2 6 C-0.66436389 2.83298577 -0.66436389 2.83298577 0 0 Z " fill="#ECF7FD" transform="translate(988,706)"/>
<path d="M0 0 C2.4375 1.5625 2.4375 1.5625 4 4 C4.59677999 8.10286241 4.38925759 10.26819573 2.4375 13.9375 C0 16 0 16 -3.5625 16.5 C-7.18078803 15.97370356 -7.89859863 15.80395944 -10 13 C-10.75236814 8.99474609 -10.49559391 5.19525591 -8.9375 1.4375 C-5.89543172 -0.8195184 -3.66947222 -0.51501365 0 0 Z " fill="#F3F9FD" transform="translate(632,941)"/>
<path d="M0 0 C3 0.5625 3 0.5625 5.375 2.0625 C7.6684392 5.590868 7.66274022 8.46861106 7 12.5625 C6 15.0625 6 15.0625 4 16.5625 C1.22188989 17.11812202 -1.2224885 17.12378878 -4 16.5625 C-6.89480534 14.30093333 -6.97418644 12.76532084 -7.4375 9.125 C-6.80257893 3.95492844 -5.32920088 0.99922517 0 0 Z " fill="#F1F8FD" transform="translate(405,940.4375)"/>
<path d="M0 0 C4.26672384 0.47408043 6.2455048 2.88307122 9 6 C11.7366825 9.90954642 11 11.54643582 11 17 C4.07 17 -2.86 17 -10 17 C-10 16.67 -10 16.34 -10 16 C-3.4 16 3.2 16 10 16 C9.67 15.34 9.34 14.68 9 14 C7.02 14 5.04 14 3 14 C3 13.34 3 12.68 3 12 C-1.29 12 -5.58 12 -10 12 C-8.71875 6.875 -8.71875 6.875 -6 5 C-2.8125 4.8125 -2.8125 4.8125 0 5 C0 3.35 0 1.7 0 0 Z " fill="#39A5F5" transform="translate(341,935)"/>
<path d="M0 0 C2.31480836 1.65343454 2.92421789 2.54827917 3.3984375 5.375 C3.39070313 6.24125 3.38296875 7.1075 3.375 8 C3.38273437 8.86625 3.39046875 9.7325 3.3984375 10.625 C2.92421789 13.45172083 2.31480836 14.34656546 0 16 C-6.08695652 16.65217391 -6.08695652 16.65217391 -8.6953125 14.7890625 C-10.41799031 12.42682766 -10.40090841 10.90174224 -10.375 8 C-10.38273437 7.13375 -10.39046875 6.2675 -10.3984375 5.375 C-9.40073819 -0.57207037 -5.30344576 -0.56822633 0 0 Z " fill="#F5FAFD" transform="translate(1042,941)"/>
<path d="M0 0 C1.9375 1 1.9375 1 3 3 C3.52673518 6.56102656 3.62932095 9.7413581 2 13 C-1.26083766 14.63041883 -4.44238446 14.65964122 -8 14 C-10.6923481 11.81246717 -10.93936827 10.41576045 -11.4375 7 C-11 4 -11 4 -9.4375 1.625 C-6.1005787 -0.5996142 -3.93094707 -0.50030235 0 0 Z " fill="#F3F9FD" transform="translate(666,941)"/>
<path d="M0 0 C2.5992827 2.5992827 3.0962785 5.37059686 4.0625 8.8125 C6.41922038 16.87293511 9.64992055 24.44908141 13.14086914 32.0793457 C13.5249292 32.93616943 13.90898926 33.79299316 14.3046875 34.67578125 C14.8303833 35.8191394 14.8303833 35.8191394 15.36669922 36.9855957 C16 39 16 39 15 42 C7.95853847 35.38581162 5.34444538 29.25011371 3 20 C2.649375 19.03191406 2.29875 18.06382812 1.9375 17.06640625 C0.85811384 13.53591402 0.58341047 10.30691829 0.375 6.625 C0.30023438 5.37976563 0.22546875 4.13453125 0.1484375 2.8515625 C0.09945313 1.91054688 0.05046875 0.96953125 0 0 Z " fill="#09375C" transform="translate(415,757)"/>
<path d="M0 0 C0.33 0 0.66 0 1 0 C1 2.64 1 5.28 1 8 C-1.64 8.33 -4.28 8.66 -7 9 C-6.34 9.66 -5.68 10.32 -5 11 C-8.09780948 13.06520632 -8.9540481 13.29477024 -12.5 13.3125 C-13.66015625 13.33763672 -13.66015625 13.33763672 -14.84375 13.36328125 C-17.52194538 12.91206355 -18.41063549 12.17518797 -20 10 C-20 9.01 -20 8.02 -20 7 C-13.4 7 -6.8 7 0 7 C0 4.69 0 2.38 0 0 Z " fill="#D4EAFB" transform="translate(711,944)"/>
<path d="M0 0 C6.93 0 13.86 0 21 0 C21 0.33 21 0.66 21 1 C18.69 1.33 16.38 1.66 14 2 C14.66 2.66 15.32 3.32 16 4 C13.04044139 5.69213943 10.84300083 6.29521319 7.4375 6.3125 C6.29087891 6.33763672 6.29087891 6.33763672 5.12109375 6.36328125 C2.46759131 5.90881398 1.57863568 5.15360203 0 3 C0 2.01 0 1.02 0 0 Z " fill="#D7ECFB" transform="translate(968,951)"/>
<path d="M0 0 C0.33 0 0.66 0 1 0 C1 12.87 1 25.74 1 39 C3.31 39 5.62 39 8 39 C7.95359375 37.74703125 7.9071875 36.4940625 7.859375 35.203125 C7.82185187 33.55210719 7.78545229 31.90106358 7.75 30.25 C7.69972656 29.0125 7.69972656 29.0125 7.6484375 27.75 C7.54983177 21.63644474 7.54983177 21.63644474 9.8125 18.4375 C12.66774393 16.56119684 14.65268016 16.6956982 18 17 C18 17.33 18 17.66 18 18 C17.05125 18.268125 16.1025 18.53625 15.125 18.8125 C11.74732727 19.74986588 11.74732727 19.74986588 10 23 C9.6373883 24.92744369 9.6373883 24.92744369 9.5859375 27.01171875 C9.52792969 28.14770508 9.52792969 28.14770508 9.46875 29.30664062 C9.42234375 30.48516602 9.42234375 30.48516602 9.375 31.6875 C9.31699219 32.88342773 9.31699219 32.88342773 9.2578125 34.10351562 C9.16367506 36.06863475 9.08075368 38.0342854 9 40 C6.03 40 3.06 40 0 40 C0 26.8 0 13.6 0 0 Z " fill="#83C4F3" transform="translate(739,924)"/>
<path d="M0 0 C6.93 0 13.86 0 21 0 C21 0.33 21 0.66 21 1 C18.69 1.33 16.38 1.66 14 2 C14.66 2.66 15.32 3.32 16 4 C12.28061029 6.47959314 8.3223853 6.74401714 4 6 C1.5 4.125 1.5 4.125 0 2 C0 1.34 0 0.68 0 0 Z " fill="#D8ECFB" transform="translate(906,951)"/>
<path d="M0 0 C2.5 0.25 2.5 0.25 4.5 2.25 C4.75 5.25 4.75 5.25 4.5 8.25 C2.5 10.25 2.5 10.25 0 10.5 C-2.5 10.25 -2.5 10.25 -4.5 8.25 C-4.75 5.25 -4.75 5.25 -4.5 2.25 C-2.5 0.25 -2.5 0.25 0 0 Z " fill="#2399F4" transform="translate(561.5,953.75)"/>
<path d="M0 0 C2.61580479 0.3269756 4.64078137 0.82039068 7 2 C7.125 4.875 7.125 4.875 7 8 C5 10 5 10 2.5 10.25 C0 10 0 10 -2 8 C-2.25 5 -2.25 5 -2 2 C-1.34 1.34 -0.68 0.68 0 0 Z " fill="#249BF3" transform="translate(531,954)"/>
<path d="M0 0 C1.2375 0.1546875 1.2375 0.1546875 2.5 0.3125 C4.64915785 3.53623677 4.88286803 4.57953674 4.5 8.3125 C2.5 10.3125 2.5 10.3125 0 10.5625 C-2.5 10.3125 -2.5 10.3125 -4.5 8.3125 C-4.75 5.3125 -4.75 5.3125 -4.5 2.3125 C-2.5 0.3125 -2.5 0.3125 0 0 Z " fill="#2299F5" transform="translate(547.5,953.6875)"/>
<path d="M0 0 C1.98 0 3.96 0 6 0 C6 0.33 6 0.66 6 1 C4.35 1 2.7 1 1 1 C1 9.25 1 17.5 1 26 C2.32 25.67 3.64 25.34 5 25 C4.97679687 24.01257813 4.95359375 23.02515625 4.9296875 22.0078125 C4.90261719 20.08582031 4.90261719 20.08582031 4.875 18.125 C4.85179687 16.84882812 4.82859375 15.57265625 4.8046875 14.2578125 C5 11 5 11 7 9 C7 14.94 7 20.88 7 27 C4.69 27 2.38 27 0 27 C0 18.09 0 9.18 0 0 Z " fill="#0C8DF1" transform="translate(808,936)"/>
<path d="M0 0 C3.625 0.375 3.625 0.375 6.0625 2.25 C7.625 4.375 7.625 4.375 7.625 6.375 C3.005 6.375 -1.615 6.375 -6.375 6.375 C-4.91785714 0.54642857 -4.91785714 0.54642857 0 0 Z " fill="#DBEFFB" transform="translate(974.375,940.625)"/>
<path d="M0 0 C3.6875 0.3125 3.6875 0.3125 6.125 2.1875 C7.6875 4.3125 7.6875 4.3125 7.6875 6.3125 C3.0675 6.3125 -1.5525 6.3125 -6.3125 6.3125 C-3.93602941 0.37132353 -3.93602941 0.37132353 0 0 Z " fill="#DBEFFC" transform="translate(912.3125,940.6875)"/>
<path d="M0 0 C0.99 0 1.98 0 3 0 C4.03275341 2.26607052 5.05133551 4.53681939 6.0625 6.8125 C6.50432617 7.77639648 6.50432617 7.77639648 6.95507812 8.75976562 C9.11328125 13.66015625 9.11328125 13.66015625 8 17 C-0.39839612 8.5633424 -0.39839612 8.5633424 -1.0625 4 C-1 1 -1 1 0 0 Z " fill="#073C6A" transform="translate(422,782)"/>
<path d="M0 0 C0.33 0 0.66 0 1 0 C1 1.98 1 3.96 1 6 C-5.27 6 -11.54 6 -18 6 C-18 4.68 -18 3.36 -18 2 C-13.71 2 -9.42 2 -5 2 C-5 2.66 -5 3.32 -5 4 C-3.35 4 -1.7 4 0 4 C0 2.68 0 1.36 0 0 Z " fill="#1390ED" transform="translate(987,945)"/>
<path d="M0 0 C3.5625 0.3125 3.5625 0.3125 5.5 1.625 C6.5625 3.3125 6.5625 3.3125 6.5625 6.3125 C2.2725 6.3125 -2.0175 6.3125 -6.4375 6.3125 C-4.97238372 0.45203488 -4.97238372 0.45203488 0 0 Z " fill="#E3F2FC" transform="translate(787.4375,940.6875)"/>
<path d="M0 0 C2.10209857 3.15314785 2.2434761 3.86103081 2.1953125 7.44921875 C2.18886719 8.29677734 2.18242188 9.14433594 2.17578125 10.01757812 C2.15902344 10.89865234 2.14226563 11.77972656 2.125 12.6875 C2.11597656 13.58017578 2.10695313 14.47285156 2.09765625 15.39257812 C2.07409748 17.59532314 2.04120329 19.79752588 2 22 C-0.31 22 -2.62 22 -5 22 C-4.505 13.09 -4.505 13.09 -4 4 C-3.67 4 -3.34 4 -3 4 C-3 9.28 -3 14.56 -3 20 C-2.01 20 -1.02 20 0 20 C0 13.4 0 6.8 0 0 Z " fill="#0D8DF3" transform="translate(765,941)"/>
<path d="M0 0 C3.5625 0.3125 3.5625 0.3125 5.5 1.625 C6.5625 3.3125 6.5625 3.3125 6.5625 6.3125 C2.2725 6.3125 -2.0175 6.3125 -6.4375 6.3125 C-4.97238372 0.45203488 -4.97238372 0.45203488 0 0 Z " fill="#E2F1FC" transform="translate(697.4375,940.6875)"/>
<path d="M0 0 C3.5625 0.3125 3.5625 0.3125 5.5 1.625 C6.5625 3.3125 6.5625 3.3125 6.5625 6.3125 C2.2725 6.3125 -2.0175 6.3125 -6.4375 6.3125 C-4.97238372 0.45203488 -4.97238372 0.45203488 0 0 Z " fill="#E6F4FC" transform="translate(337.4375,940.6875)"/>
<path d="M0 0 C0.66 0.309375 1.32 0.61875 2 0.9375 C5.70476015 2.24960255 9.09263991 2.60264135 13 3 C13 3.99 13 4.98 13 6 C11.081875 6.4640625 11.081875 6.4640625 9.125 6.9375 C6.89898325 7.47605244 5.05260001 7.9737 3 9 C0.375 8.0625 0.375 8.0625 -2 7 C-1.125 2.25 -1.125 2.25 0 0 Z " fill="#2499F0" transform="translate(651,965)"/>
<path d="M0 0 C0 0.33 0 0.66 0 1 C-1.15628906 1.03867187 -1.15628906 1.03867187 -2.3359375 1.078125 C-3.33882812 1.13484375 -4.34171875 1.1915625 -5.375 1.25 C-6.37273438 1.29640625 -7.37046875 1.3428125 -8.3984375 1.390625 C-11.12746299 1.71812004 -11.12746299 1.71812004 -12.2890625 3.921875 C-12.52367187 4.60765625 -12.75828125 5.2934375 -13 6 C-13.33 6.66 -13.66 7.32 -14 8 C-15.48199902 7.55090939 -16.96055236 7.09043436 -18.4375 6.625 C-19.26121094 6.36976563 -20.08492187 6.11453125 -20.93359375 5.8515625 C-23 5 -23 5 -24 3 C-21.50159546 2.49061655 -19.00176612 1.99236886 -16.5 1.5 C-15.80390625 1.35691406 -15.1078125 1.21382812 -14.390625 1.06640625 C-9.50912797 0.11722627 -4.97281701 -0.13440046 0 0 Z " fill="#41A6F5" transform="translate(591,537)"/>
<path d="M0 0 C0.33 0.66 0.66 1.32 1 2 C-0.01642421 4.25108069 -1.08436429 6.39055393 -2.25 8.5625 C-5.05102757 13.94274647 -7.2881073 19.1594249 -9 25 C-9.33 25 -9.66 25 -10 25 C-10 23.02 -10 21.04 -10 19 C-9.34 19 -8.68 19 -8 19 C-8.43054688 17.97777344 -8.86109375 16.95554687 -9.3046875 15.90234375 C-10 12 -10 12 -8.0078125 8.69140625 C-7.06974406 7.62782161 -6.10770997 6.58498022 -5.125 5.5625 C-4.63902344 5.02173828 -4.15304687 4.48097656 -3.65234375 3.92382812 C-2.4550485 2.59741279 -1.23008828 1.29606187 0 0 Z " fill="#36A3F6" transform="translate(390,623)"/>
<path d="M0 0 C1.9375 0.75 1.9375 0.75 4 2 C4.75 4.125 4.75 4.125 5 6 C2.6875 7.5625 2.6875 7.5625 0 9 C-0.99 8.67 -1.98 8.34 -3 8 C-3.6875 5.9375 -3.6875 5.9375 -4 4 C-5.65 3.67 -7.3 3.34 -9 3 C-9 2.67 -9 2.34 -9 2 C-6.94921875 1.77213542 -4.8984375 1.54427083 -2.84765625 1.31640625 C-0.98859771 1.18113386 -0.98859771 1.18113386 0 0 Z " fill="#2A9CF2" transform="translate(344,955)"/>
<path d="M0 0 C1.23556641 0.01740234 1.23556641 0.01740234 2.49609375 0.03515625 C3.32238281 0.04417969 4.14867187 0.05320312 5 0.0625 C5.63808594 0.07410156 6.27617188 0.08570313 6.93359375 0.09765625 C6.05859375 4.97265625 6.05859375 4.97265625 4.93359375 6.09765625 C2.60061942 6.13858562 0.2665415 6.14007348 -2.06640625 6.09765625 C-2.44859392 4.44150968 -2.78035727 2.77308601 -3.06640625 1.09765625 C-2.06640625 0.09765625 -2.06640625 0.09765625 0 0 Z " fill="#F3F9FD" transform="translate(1003.06640625,951.90234375)"/>
<path d="M0 0 C-1.74915445 1.43852875 -3.49935795 2.87578198 -5.25 4.3125 C-6.71179688 5.51326172 -6.71179688 5.51326172 -8.203125 6.73828125 C-10.4366262 8.54442258 -12.68687263 10.29819915 -15 12 C-15.33 10.35 -15.66 8.7 -16 7 C-13.24709051 4.86790609 -10.45583256 2.98643497 -7.4375 1.25 C-6.67308594 0.80140625 -5.90867187 0.3528125 -5.12109375 -0.109375 C-3 -1 -3 -1 0 0 Z " fill="#34A2F7" transform="translate(386,559)"/>
<path d="M0 0 C0.33 1.32 0.66 2.64 1 4 C-5.27 4 -11.54 4 -18 4 C-18.33 3.01 -18.66 2.02 -19 1 C-16.95840905 0.9727384 -14.91671037 0.95348655 -12.875 0.9375 C-11.73804688 0.92589844 -10.60109375 0.91429687 -9.4296875 0.90234375 C-6.1870844 0.994673 -3.18067388 1.38610094 0 2 C0 1.34 0 0.68 0 0 Z " fill="#1192EE" transform="translate(350,947)"/>
<path d="M0 0 C-2.3125 2.5 -2.3125 2.5 -5 5 C-8.81328762 5 -11.84250652 4.99783921 -14.8125 2.4375 C-15.204375 1.963125 -15.59625 1.48875 -16 1 C-10.61509359 0.08342019 -5.45769811 -0.11138159 0 0 Z " fill="#249BF6" transform="translate(535,525)"/>
<path d="M0 0 C2.97 0 5.94 0 9 0 C9 1.65 9 3.3 9 5 C8.67 4.01 8.34 3.02 8 2 C6.02 2 4.04 2 2 2 C1.855625 2.721875 1.71125 3.44375 1.5625 4.1875 C1.376875 5.115625 1.19125 6.04375 1 7 C0.87625 7.886875 0.7525 8.77375 0.625 9.6875 C0 12 0 12 -3 14 C-2.40380045 9.13103697 -1.43023178 4.67209049 0 0 Z " fill="#309FF3" transform="translate(865,926)"/>
<path d="M0 0 C4.95 0.33 9.9 0.66 15 1 C15 1.66 15 2.32 15 3 C9.92327799 3.84612033 5.15130782 4.26193091 0 4 C-0.66 3.34 -1.32 2.68 -2 2 C-1.34 2 -0.68 2 0 2 C0 1.34 0 0.68 0 0 Z " fill="#CBE9FC" transform="translate(883,699)"/>
<path d="M0 0 C1.33998047 0.06960938 1.33998047 0.06960938 2.70703125 0.140625 C3.60808594 0.17671875 4.50914062 0.2128125 5.4375 0.25 C6.46810547 0.31960938 6.46810547 0.31960938 7.51953125 0.390625 C7.18953125 1.710625 6.85953125 3.030625 6.51953125 4.390625 C2.55953125 4.390625 -1.40046875 4.390625 -5.48046875 4.390625 C-2.48046875 0.390625 -2.48046875 0.390625 0 0 Z " fill="#1192F0" transform="translate(912.48046875,946.609375)"/>
<path d="M0 0 C1.44319692 0.90767102 2.87934106 1.82656106 4.3125 2.75 C5.11300781 3.26046875 5.91351562 3.7709375 6.73828125 4.296875 C9.00368861 6.00277761 10.42684167 7.65808145 12 10 C7.0276578 8.50829734 2.58154261 6.39542583 -2 4 C-1.34 3.67 -0.68 3.34 0 3 C0 2.01 0 1.02 0 0 Z " fill="#34A0F7" transform="translate(615,560)"/>
<path d="M0 0 C0 3.69834896 -0.81364222 4.27081428 -3.25 6.9375 C-3.88550781 7.63746094 -4.52101562 8.33742188 -5.17578125 9.05859375 C-7.07727446 11.08223855 -8.99660415 13.07673998 -11 15 C-11.99 14.67 -12.98 14.34 -14 14 C-9.38 9.38 -4.76 4.76 0 0 Z " fill="#299CF3" transform="translate(168,442)"/>
<path d="M0 0 C0.99386719 0.00902344 1.98773437 0.01804687 3.01171875 0.02734375 C4.15060547 0.04474609 4.15060547 0.04474609 5.3125 0.0625 C2.02758627 2.25244248 0.48154361 2.41527339 -3.375 2.6875 C-4.36886719 2.76226563 -5.36273437 2.83703125 -6.38671875 2.9140625 C-7.52560547 2.98753906 -7.52560547 2.98753906 -8.6875 3.0625 C-8.6875 3.7225 -8.6875 4.3825 -8.6875 5.0625 C-9.6775 5.7225 -10.6675 6.3825 -11.6875 7.0625 C-12.6775 6.7325 -13.6675 6.4025 -14.6875 6.0625 C-9.62842068 1.67796459 -6.89238458 -0.08108688 0 0 Z " fill="#34A0F6" transform="translate(946.6875,794.9375)"/>
<path d="M0 0 C2.61833779 2.61833779 2.93130263 4.79387826 3.8125 8.375 C4.10769531 9.51710938 4.40289062 10.65921875 4.70703125 11.8359375 C5 15 5 15 3.57421875 17.4140625 C3.05472656 17.93742188 2.53523438 18.46078125 2 19 C1.66089006 16.95928485 1.32897296 14.91737379 1 12.875 C0.814375 11.73804688 0.62875 10.60109375 0.4375 9.4296875 C0.03043951 6.23862398 -0.07809902 3.21182209 0 0 Z " fill="#275B8D" transform="translate(415,757)"/>
<path d="M0 0 C0.625 1.8125 0.625 1.8125 1 4 C0.01 5.485 0.01 5.485 -1 7 C-3.05859375 7.3984375 -3.05859375 7.3984375 -5.4375 7.375 C-6.21996094 7.38273438 -7.00242187 7.39046875 -7.80859375 7.3984375 C-10 7 -10 7 -13 4 C-6.565 3.505 -6.565 3.505 0 3 C0 2.01 0 1.02 0 0 Z " fill="#108FF2" transform="translate(1011,944)"/>
<path d="M0 0 C0.33 1.32 0.66 2.64 1 4 C-0.41655793 4.0272415 -1.83327045 4.04650467 -3.25 4.0625 C-4.43335938 4.07990234 -4.43335938 4.07990234 -5.640625 4.09765625 C-7.90691002 4.00385306 -9.8288895 3.63241063 -12 3 C-12 2.34 -12 1.68 -12 1 C-7.915021 0.45533613 -4.1274515 0 0 0 Z " fill="#D3ECFC" transform="translate(820,699)"/>
<path d="M0 0 C0.33 0 0.66 0 1 0 C1.33 6.93 1.66 13.86 2 21 C-1.24732932 19.37633534 -1.70155136 16.24612161 -3 13 C-2.34 12.34 -1.68 11.68 -1 11 C-0.53709779 8.33757179 -0.53709779 8.33757179 -0.375 5.375 C-0.30023438 4.37210938 -0.22546875 3.36921875 -0.1484375 2.3359375 C-0.09945313 1.56507813 -0.05046875 0.79421875 0 0 Z " fill="#269EF6" transform="translate(476,646)"/>
<path d="M0 0 C-3.63 1.98 -7.26 3.96 -11 6 C-11.99 5.01 -12.98 4.02 -14 3 C-11.73560813 0.73560813 -10.62863112 0.48211484 -7.5625 -0.1875 C-6.78003906 -0.36667969 -5.99757813 -0.54585937 -5.19140625 -0.73046875 C-3 -1 -3 -1 0 0 Z " fill="#40AAF9" transform="translate(377,514)"/>
<path d="M0 0 C0 0.33 0 0.66 0 1 C-0.94875 1.268125 -1.8975 1.53625 -2.875 1.8125 C-6.25267273 2.74986588 -6.25267273 2.74986588 -8 6 C-8.3626117 7.92744369 -8.3626117 7.92744369 -8.4140625 10.01171875 C-8.45273437 10.76904297 -8.49140625 11.52636719 -8.53125 12.30664062 C-8.5621875 13.09232422 -8.593125 13.87800781 -8.625 14.6875 C-8.66367187 15.48478516 -8.70234375 16.28207031 -8.7421875 17.10351562 C-8.83632494 19.06863475 -8.91924632 21.0342854 -9 23 C-9.33 23 -9.66 23 -10 23 C-10.11644156 19.91698584 -10.18732432 16.83453877 -10.25 13.75 C-10.28351562 12.87730469 -10.31703125 12.00460937 -10.3515625 11.10546875 C-10.45020688 4.64426158 -10.45020688 4.64426158 -8.1875 1.40625 C-5.33172094 -0.42960797 -3.32801974 -0.30254725 0 0 Z " fill="#ACDAFA" transform="translate(757,941)"/>
<path d="M0 0 C2.22825644 2.22825644 2.69239369 3.65761628 3.625 6.625 C3.88539063 7.44226563 4.14578125 8.25953125 4.4140625 9.1015625 C4.60742188 9.72804688 4.80078125 10.35453125 5 11 C4.38125 10.505 3.7625 10.01 3.125 9.5 C1.16119096 7.80777227 1.16119096 7.80777227 -1 8 C-1 7.34 -1 6.68 -1 6 C-1.66 6 -2.32 6 -3 6 C-1.125 1.125 -1.125 1.125 0 0 Z " fill="#39A8F7" transform="translate(721,820)"/>
<path d="M0 0 C1.1875 1.5625 1.1875 1.5625 2 4 C1.07989717 6.3659787 0.07136051 8.69855891 -1 11 C-1.39764263 12.98821313 -1.75455166 14.98732362 -2 17 C-2.28875 16.360625 -2.5775 15.72125 -2.875 15.0625 C-3.82823451 12.84793921 -3.82823451 12.84793921 -6 12 C-5.38125 11.13375 -4.7625 10.2675 -4.125 9.375 C-2.15345216 6.24371814 -1.01033009 3.53615531 0 0 Z " fill="#3EA6F4" transform="translate(679,632)"/>
<path d="M0 0 C0.66 0.33 1.32 0.66 2 1 C-1.53737969 5.84752032 -4.9974723 8.8884208 -11 10 C-7.50640535 6.40365256 -3.88901869 3.16548033 0 0 Z " fill="#2C9EF5" transform="translate(508,508)"/>
<path d="M0 0 C0.90492188 0.02320313 1.80984375 0.04640625 2.7421875 0.0703125 C4.10730469 0.09738281 4.10730469 0.09738281 5.5 0.125 C6.19867187 0.14820313 6.89734375 0.17140625 7.6171875 0.1953125 C7.6171875 0.5253125 7.6171875 0.8553125 7.6171875 1.1953125 C4.9771875 1.5253125 2.3371875 1.8553125 -0.3828125 2.1953125 C0.6071875 3.1853125 1.5971875 4.1753125 2.6171875 5.1953125 C0.6371875 5.5253125 -1.3428125 5.8553125 -3.3828125 6.1953125 C-4.0078125 4.3203125 -4.0078125 4.3203125 -4.3828125 2.1953125 C-2.3828125 0.1953125 -2.3828125 0.1953125 0 0 Z " fill="#3AA3F2" transform="translate(864.3828125,806.8046875)"/>
<path d="M0 0 C1.12758089 3.38274266 0.81750262 4.76778223 0.0625 8.1875 C-0.13214844 9.08855469 -0.32679688 9.98960937 -0.52734375 10.91796875 C-0.68332031 11.60503906 -0.83929687 12.29210937 -1 13 C-1.66 13 -2.32 13 -3 13 C-3.08121924 11.39667209 -3.13929134 9.79215974 -3.1875 8.1875 C-3.22230469 7.29417969 -3.25710938 6.40085937 -3.29296875 5.48046875 C-2.95081002 2.58352485 -2.24606427 1.77444972 0 0 Z " fill="#D1EAFC" transform="translate(750,755)"/>
<path d="M0 0 C3.3 0 6.6 0 10 0 C10.33 1.32 10.66 2.64 11 4 C7.37 3.34 3.74 2.68 0 2 C0 1.34 0 0.68 0 0 Z " fill="#BAE2FA" transform="translate(906,722)"/>
<path d="M0 0 C0.33 0.99 0.66 1.98 1 3 C1.66 3 2.32 3 3 3 C3.66 6.3 4.32 9.6 5 13 C4.01 12.67 3.02 12.34 2 12 C0.19204568 7.9083139 -0.21156222 4.44280672 0 0 Z " fill="#289FF6" transform="translate(321,695)"/>
<path d="M0 0 C0.66 0.33 1.32 0.66 2 1 C-2.08839103 5.29281059 -4.97865056 7.31575575 -11 8 C-7.71644638 4.32241995 -4.37221763 2.18610882 0 0 Z " fill="#2B9EF4" transform="translate(338,527)"/>
<path d="M0 0 C-1.5830577 4.2742558 -4.50568404 6.26531794 -8 9 C-8.66 8.67 -9.32 8.34 -10 8 C-8.71451591 6.66070495 -7.42141845 5.32871357 -6.125 4 C-5.04605469 2.88625 -5.04605469 2.88625 -3.9453125 1.75 C-2 0 -2 0 0 0 Z " fill="#33A1F6" transform="translate(341,588)"/>
<path d="M0 0 C3.3 0 6.6 0 10 0 C9.01 1.485 9.01 1.485 8 3 C4.375 3.1875 4.375 3.1875 1 3 C0.67 2.01 0.34 1.02 0 0 Z " fill="#1193F1" transform="translate(781,948)"/>
<path d="M0 0 C3.31658613 4.9748792 4.38479461 11.03568353 4 17 C2 15 2 15 1.875 11.875 C1.91625 10.92625 1.9575 9.9775 2 9 C1.34 9 0.68 9 0 9 C0 6.03 0 3.06 0 0 Z " fill="#57B6F9" transform="translate(564,832)"/>
<path d="M0 0 C1.56073255 2.34109882 2.86373867 4.56333403 4.125 7.0625 C4.47820312 7.75472656 4.83140625 8.44695313 5.1953125 9.16015625 C6 11 6 11 6 13 C3 12 3 12 2.05078125 10.29296875 C1.80714844 9.59816406 1.56351562 8.90335938 1.3125 8.1875 C1.06113281 7.50042969 0.80976563 6.81335938 0.55078125 6.10546875 C0 4 0 4 0 0 Z " fill="#34A4F5" transform="translate(329,717)"/>
<path d="M0 0 C0.66 0 1.32 0 2 0 C1.67 3.3 1.34 6.6 1 10 C0.34 10 -0.32 10 -1 10 C-1.02689216 8.52093108 -1.04634621 7.04172517 -1.0625 5.5625 C-1.07410156 4.73878906 -1.08570313 3.91507813 -1.09765625 3.06640625 C-1 1 -1 1 0 0 Z " fill="#3BA4F1" transform="translate(899,943)"/>
<path d="M0 0 C-4.0271824 2.20536179 -7.43545749 3.45660208 -12 4 C-11.67 3.01 -11.34 2.02 -11 1 C-7.08609399 -0.47694566 -4.00565371 -1.60226148 0 0 Z " fill="#32A3F6" transform="translate(395,469)"/>
<path d="M0 0 C1.43088528 2.86177057 0.59991697 4.93375773 0 8 C-0.66 7.34 -1.32 6.68 -2 6 C-3.32 6.99 -4.64 7.98 -6 9 C-4.68775452 5.06326356 -3.08089673 2.77280706 0 0 Z " fill="#D4EEFC" transform="translate(496,599)"/>
<path d="M0 0 C0.99 0.33 1.98 0.66 3 1 C-0.96 4.465 -0.96 4.465 -5 8 C-5.66 7.67 -6.32 7.34 -7 7 C-4.69 4.69 -2.38 2.38 0 0 Z " fill="#289DF5" transform="translate(423,314)"/>
<path d="M0 0 C3.7952131 1.49097658 5.61042731 3.75700849 8 7 C5 7 5 7 2.3125 4.625 C0 2 0 2 0 0 Z " fill="#2FA2F5" transform="translate(353,757)"/>
<path d="M0 0 C0 0.66 0 1.32 0 2 C-2.31 2 -4.62 2 -7 2 C-7 1.34 -7 0.68 -7 0 C-7.99 -0.33 -8.98 -0.66 -10 -1 C-6.06329512 -2.31223496 -3.87511856 -1.24296256 0 0 Z " fill="#2EA1F7" transform="translate(553,596)"/>
<path d="M0 0 C0.33 0 0.66 0 1 0 C1.75 3.25 1.75 3.25 2 7 C0.0625 9.4375 0.0625 9.4375 -2 11 C-1.125 3.375 -1.125 3.375 0 0 Z " fill="#42A9F5" transform="translate(447,582)"/>
<path d="M0 0 C1.98 0 3.96 0 6 0 C6 0.33 6 0.66 6 1 C8.97 1.495 8.97 1.495 12 2 C12 2.33 12 2.66 12 3 C8.7 3.33 5.4 3.66 2 4 C1.34 2.68 0.68 1.36 0 0 Z " fill="#48AAF3" transform="translate(998,949)"/>
<path d="M0 0 C0 1.98 0 3.96 0 6 C-1.65 6 -3.3 6 -5 6 C-4.34 4.68 -3.68 3.36 -3 2 C-3.66 1.67 -4.32 1.34 -5 1 C-2 0 -2 0 0 0 Z " fill="#0C91F6" transform="translate(824,935)"/>
<path d="M0 0 C0.66 0 1.32 0 2 0 C3.49821059 3.37097383 4 5.20442119 4 9 C3.34 9 2.68 9 2 9 C1.34 6.03 0.68 3.06 0 0 Z " fill="#209DF7" transform="translate(756,673)"/>
<path d="M0 0 C1.32 0.66 2.64 1.32 4 2 C3.525625 2.45375 3.05125 2.9075 2.5625 3.375 C0.90972192 4.93258204 0.90972192 4.93258204 0 7 C-0.66 7 -1.32 7 -2 7 C-1.125 2.25 -1.125 2.25 0 0 Z " fill="#38A3F0" transform="translate(651,965)"/>
<path d="M0 0 C0 0.33 0 0.66 0 1 C-1.65 1 -3.3 1 -5 1 C-5 1.66 -5 2.32 -5 3 C-7.31 3.33 -9.62 3.66 -12 4 C-8.07829422 -0.09996514 -5.68430095 -0.10526483 0 0 Z " fill="#53B1F5" transform="translate(700,934)"/>
<path d="M0 0 C0.33 0 0.66 0 1 0 C1.33 2.64 1.66 5.28 2 8 C1.34 8 0.68 8 0 8 C0 9.65 0 11.3 0 13 C-0.33 13 -0.66 13 -1 13 C-1.07654536 8.48382401 -1.10228696 4.40914783 0 0 Z " fill="#5DB2F3" transform="translate(412,694)"/>
<path d="M0 0 C0.66 0.33 1.32 0.66 2 1 C1.65120368 4.25543229 0.97866739 5.01873107 -1.5625 7.25 C-2.7690625 8.11625 -2.7690625 8.11625 -4 9 C-2.80100302 5.9168649 -1.52299523 2.93720508 0 0 Z " fill="#CCEBFC" transform="translate(902,650)"/>
<path d="M0 0 C3.24271506 0.5590888 4.93057424 1.4132178 7 4 C7 4.66 7 5.32 7 6 C4.08482708 4.92598892 2.22189824 4.22189824 0 2 C0 1.34 0 0.68 0 0 Z " fill="#37A4FA" transform="translate(517,436)"/>
<path d="M0 0 C0.6875 1.6875 0.6875 1.6875 1 4 C-0.3125 6.75 -0.3125 6.75 -2 9 C-2.66 9 -3.32 9 -4 9 C-2.94124926 5.59687262 -1.99097846 2.98646769 0 0 Z " fill="#299AF5" transform="translate(481,578)"/>
<path d="M0 0 C2 3.75 2 3.75 2 6 C-0.31 6 -2.62 6 -5 6 C-5 5.34 -5 4.68 -5 4 C-3.68 4 -2.36 4 -1 4 C-0.67 2.68 -0.34 1.36 0 0 Z " fill="#1292EF" transform="translate(800,945)"/>
<path d="M0 0 C2.25 0.25 2.25 0.25 4 1 C3.34 1 2.68 1 2 1 C2 1.66 2 2.32 2 3 C1.01 3.66 0.02 4.32 -1 5 C-1.99 4.67 -2.98 4.34 -4 4 C-2.25 1.9375 -2.25 1.9375 0 0 Z " fill="#289AF4" transform="translate(936,797)"/>
<path d="M0 0 C1.9451 2.91765 2.45276317 4.62537285 3 8 C1.02 6.35 -0.96 4.7 -3 3 C-2.01 2.01 -1.02 1.02 0 0 Z " fill="#A4C7E6" transform="translate(419,782)"/>
<path d="M0 0 C0.66 0.33 1.32 0.66 2 1 C-1.625 5.875 -1.625 5.875 -5 7 C-3.70700306 4.11562221 -2.34058637 2.12780579 0 0 Z " fill="#2A9CF6" transform="translate(604,656)"/>
<path d="M0 0 C0.33 0.66 0.66 1.32 1 2 C0.06421005 4.35981813 -0.93347808 6.69631264 -2 9 C-2.33 9 -2.66 9 -3 9 C-2.4140625 2.84765625 -2.4140625 2.84765625 -2 1 C-1.34 0.67 -0.68 0.34 0 0 Z " fill="#32A1F6" transform="translate(328,634)"/>
<path d="M0 0 C1.98 0.99 1.98 0.99 4 2 C3.34 3.32 2.68 4.64 2 6 C1.34 5.67 0.68 5.34 0 5 C0 3.35 0 1.7 0 0 Z " fill="#42ABF8" transform="translate(658,597)"/>
<path d="M0 0 C0.33 0 0.66 0 1 0 C1.36923077 5.53846154 1.36923077 5.53846154 -0.5 7.875 C-1.2425 8.431875 -1.2425 8.431875 -2 9 C-2.33 8.34 -2.66 7.68 -3 7 C-2.06421005 4.64018187 -1.06652192 2.30368736 0 0 Z " fill="#49A9F5" transform="translate(950,577)"/>
<path d="M0 0 C2.97 0 5.94 0 9 0 C7.68 1.32 6.36 2.64 5 4 C4.67 3.01 4.34 2.02 4 1 C2.68 0.67 1.36 0.34 0 0 Z " fill="#44ABF8" transform="translate(526,525)"/>
</svg>
